<svg width="117" height="88" viewBox="0 0 117 88" fill="none" xmlns="http://www.w3.org/2000/svg">
<path opacity="0.1" d="M110.006 50.4296C105.916 56.5505 106.951 65.0583 109.011 71.7971C109.704 74.0528 110.487 76.4368 110.022 78.9301C109.452 81.9792 107.131 84.3276 104.75 85.6423C100.413 88.04 95.3779 87.8429 91.6426 85.1308C88.4145 82.7863 86.2205 78.7862 82.926 76.557C77.4197 72.8397 70.067 74.8284 63.7177 78.0234C59.2257 80.2812 54.2938 83.1608 50.0365 81.3544C47.0412 80.0831 45.0997 76.6595 44.135 72.9629C43.6694 71.1782 43.3643 69.2338 42.3718 67.8571C41.7775 67.0391 40.9851 66.4774 40.1639 66.0211C32.6647 61.8091 22.7703 64.9223 15.5147 60.186C10.6185 56.993 7.70535 50.5735 6.61775 43.7588C5.53015 36.9441 6.06603 29.6958 6.79307 22.5628C7.30914 17.4944 8.04906 12.0722 10.8909 8.00906C13.8971 3.71132 18.7735 1.88126 23.0744 2.39667C27.3752 2.91209 31.1571 5.46451 34.4486 8.54615C38.5623 12.3896 42.3104 17.2638 47.5335 18.5982C51.0905 19.5098 54.9238 18.6544 58.662 18.204C64.9123 17.4599 71.106 17.8738 77.2582 18.3656C83.1489 18.8367 89.0772 19.3895 94.6093 21.398C98.5238 22.819 101.577 25.6494 105.247 27.5317C107.639 28.7586 110.303 28.9734 112.545 30.5867C115.306 32.5725 117.747 36.1735 116.787 40.623C115.875 44.8596 112.176 47.1775 110.006 50.4296Z" fill="#6B0000"/>
<path opacity="0.1" d="M97 27.3119H93V34.3119H97V27.3119Z" fill="#6C63FF"/>
<path opacity="0.1" d="M97 28.3119H93V33.3119H97V28.3119Z" fill="#E05A4A"/>
<path opacity="0.1" d="M91 23.3119H85V29.3119H91V23.3119Z" fill="#FAFF00"/>
<path opacity="0.1" d="M24.367 7.08093H0.900146V7.703H24.367V7.08093Z" fill="#6C63FF"/>
<path opacity="0.1" d="M24.367 10.1231H0.900146V10.7452H24.367V10.1231Z" fill="#6C63FF"/>
<path d="M47 47.3119H45V68.3119H47V47.3119Z" fill="#D6D6E3"/>
<path d="M101.854 49.0952V29.3831C101.854 28.8337 102.073 28.3069 102.462 27.9185C102.851 27.5301 103.379 27.3119 103.929 27.3119C104.479 27.3129 105.005 27.5316 105.393 27.9199C105.782 28.3082 106 28.8344 106 29.3831V53.2397C106 53.7892 105.781 54.3163 105.392 54.7049C105.003 55.0936 104.475 55.3119 103.925 55.3119H91.0748C90.5246 55.3119 89.9968 55.0936 89.6077 54.7049C89.2186 54.3163 89 53.7892 89 53.2397C89 52.6901 89.2186 52.163 89.6077 51.7744C89.9968 51.3858 90.5246 51.1674 91.0748 51.1674H99.7794C100.33 51.1674 100.857 50.9491 101.247 50.5605C101.636 50.1719 101.854 49.6448 101.854 49.0952Z" fill="#AEBEE1"/>
<path d="M101.854 49.0952V29.3831C101.854 28.8337 102.073 28.3069 102.462 27.9185C102.851 27.5301 103.379 27.3119 103.929 27.3119C104.479 27.3129 105.005 27.5316 105.393 27.9199C105.782 28.3082 106 28.8344 106 29.3831V53.2397C106 53.7892 105.781 54.3163 105.392 54.7049C105.003 55.0936 104.475 55.3119 103.925 55.3119H91.0748C90.5246 55.3119 89.9968 55.0936 89.6077 54.7049C89.2186 54.3163 89 53.7892 89 53.2397C89 52.6901 89.2186 52.163 89.6077 51.7744C89.9968 51.3858 90.5246 51.1674 91.0748 51.1674H99.7794C100.33 51.1674 100.857 50.9491 101.247 50.5605C101.636 50.1719 101.854 49.6448 101.854 49.0952Z" fill="#535461"/>
<path d="M89 52.3119C89.0307 51.7991 89.2797 51.3163 89.6957 50.963C90.1116 50.6097 90.6628 50.4128 91.2359 50.4129H100.629C101.223 50.4129 101.793 50.2014 102.213 49.8251C102.633 49.4488 102.868 48.9384 102.868 48.4062V29.3176C102.868 28.8019 103.089 28.3058 103.486 27.9323C103.883 27.5588 104.425 27.3366 105 27.3119V52.3119H89Z" fill="#D6D6E3"/>
<path d="M25.145 49.3138V30.3097C25.145 29.7807 24.9271 29.2732 24.539 28.8987C24.1509 28.5242 23.6244 28.3131 23.075 28.3119C22.5246 28.3119 21.9969 28.5224 21.6077 28.897C21.2186 29.2717 21 29.7798 21 30.3097V53.3094C20.9994 53.5721 21.0526 53.8324 21.1565 54.0753C21.2605 54.3183 21.4133 54.5391 21.606 54.7251C21.7988 54.9111 22.0277 55.0587 22.2798 55.1594C22.5318 55.2601 22.8021 55.3119 23.075 55.3119H35.925C36.4754 55.3119 37.0031 55.1014 37.3923 54.7267C37.7814 54.3521 38 53.8439 38 53.3141C38 52.7842 37.7814 52.2761 37.3923 51.9014C37.0031 51.5268 36.4754 51.3163 35.925 51.3163H27.221C26.948 51.3164 26.6777 51.2647 26.4255 51.164C26.1733 51.0634 25.9442 50.9158 25.7514 50.7298C25.5585 50.5438 25.4057 50.3229 25.3017 50.08C25.1976 49.837 25.1444 49.5766 25.145 49.3138Z" fill="#AEBEE1"/>
<path d="M25.145 49.3138V30.3097C25.145 29.7807 24.9271 29.2732 24.539 28.8987C24.1509 28.5242 23.6244 28.3131 23.075 28.3119C22.5246 28.3119 21.9969 28.5224 21.6077 28.897C21.2186 29.2717 21 29.7798 21 30.3097V53.3094C20.9994 53.5721 21.0526 53.8324 21.1565 54.0753C21.2605 54.3183 21.4133 54.5391 21.606 54.7251C21.7988 54.9111 22.0277 55.0587 22.2798 55.1594C22.5318 55.2601 22.8021 55.3119 23.075 55.3119H35.925C36.4754 55.3119 37.0031 55.1014 37.3923 54.7267C37.7814 54.3521 38 53.8439 38 53.3141C38 52.7842 37.7814 52.2761 37.3923 51.9014C37.0031 51.5268 36.4754 51.3163 35.925 51.3163H27.221C26.948 51.3164 26.6777 51.2647 26.4255 51.164C26.1733 51.0634 25.9442 50.9158 25.7514 50.7298C25.5585 50.5438 25.4057 50.3229 25.3017 50.08C25.1976 49.837 25.1444 49.5766 25.145 49.3138Z" fill="#535461"/>
<path d="M38 54.3119C37.9712 53.7785 37.7377 53.2764 37.3477 52.909C36.9577 52.5415 36.4408 52.3367 35.9034 52.3367H27.0963C26.8205 52.3369 26.5474 52.283 26.2925 52.1782C26.0377 52.0733 25.8061 51.9196 25.6111 51.7258C25.416 51.532 25.2613 51.3018 25.1557 51.0486C25.0501 50.7953 24.9958 50.5238 24.9958 50.2496V30.3961C24.9957 29.8604 24.7884 29.3454 24.4169 28.9574C24.0455 28.5695 23.5381 28.3384 23 28.3119V54.3119H38Z" fill="#D6D6E3"/>
<path d="M85 47.3119H83V68.3119H85V47.3119Z" fill="#D6D6E3"/>
<path opacity="0.1" d="M47 47.3119H45V48.3119H47V47.3119Z" fill="black"/>
<path opacity="0.1" d="M85 47.3119H83V48.3119H85V47.3119Z" fill="black"/>
<path d="M58.9999 44.6968C59.0056 45.0348 58.7627 45.3119 58.4619 45.3119H52.7829V44.7178H57.5083C57.7123 44.7178 57.8394 44.4702 57.737 44.2722L53.4519 35.5268C53.4216 35.4638 53.3745 35.4104 53.3159 35.3724C53.2574 35.3345 53.1895 35.3134 53.1198 35.3116H51V34.3119H53.6768C53.7255 34.3131 53.773 34.3278 53.814 34.3544C53.855 34.3809 53.888 34.4182 53.9092 34.4623L58.8215 43.9837C58.9347 44.2045 58.9957 44.4485 58.9999 44.6968Z" fill="#535461"/>
<path d="M48.664 43.1721L48.5999 43.3119L48 42.7933L49.856 24.3119H50.3339C50.3339 24.3119 50.3534 24.397 50.3855 24.559C50.7054 26.1563 52.2767 35.202 48.664 43.1721Z" fill="#535461"/>
<path opacity="0.1" d="M51 24.559L48.8354 43.1721L48.7547 43.3119L48 42.7933L50.3349 24.3119H50.936C50.936 24.3119 50.9597 24.4 51 24.559Z" fill="black"/>
<path d="M49.2878 24.491L47.0767 42.874L48.4908 43.0427L50.702 24.6597L49.2878 24.491Z" fill="#D6D6E3"/>
<path d="M45.999 45.3119H41V45.0108C40.9999 44.8772 41.0391 44.7487 41.1093 44.6526C41.1795 44.5564 41.2751 44.5002 41.3761 44.4957L45.3854 44.3123C45.465 44.3088 45.5444 44.3264 45.6188 44.3643C45.6932 44.4021 45.7611 44.4594 45.8184 44.5326C45.8758 44.6059 45.9214 44.6937 45.9526 44.7908C45.9838 44.8879 45.9999 44.9923 46 45.0978L45.999 45.3119Z" fill="#D6D6E3"/>
<path d="M69.0001 44.6968C68.9937 45.0348 69.267 45.3119 69.6055 45.3119H75.9991V44.7178H70.6754C70.4458 44.7178 70.3027 44.4702 70.4181 44.2722L75.2399 35.5268C75.274 35.4638 75.327 35.4104 75.3929 35.3724C75.4588 35.3345 75.5352 35.3134 75.6136 35.3116H78V34.3119H74.9901C74.936 34.3137 74.8836 34.3286 74.8382 34.3549C74.7929 34.3812 74.7565 34.418 74.7328 34.4614L69.2051 43.9827C69.0761 44.2035 69.0059 44.4479 69.0001 44.6968Z" fill="#535461"/>
<path d="M81.1151 43.1721L81.2006 43.3119L82 42.7933L79.5268 24.3119H78.89C78.89 24.3119 78.8639 24.397 78.8212 24.559C78.3939 26.1563 76.2959 35.202 81.1151 43.1721Z" fill="#535461"/>
<path opacity="0.1" d="M78 24.559L80.8862 43.1721L80.9938 43.3119L82 42.7933L78.8882 24.3119H78.0866C78.0866 24.3119 78.0538 24.4 78 24.559Z" fill="black"/>
<path d="M79.9823 24.4892L78.5681 24.6578L80.7793 43.0409L82.1935 42.8722L79.9823 24.4892Z" fill="#D6D6E3"/>
<path d="M84.001 45.3119H89V45.0108C89.0001 44.8772 88.9609 44.7487 88.8907 44.6526C88.8205 44.5564 88.7249 44.5002 88.6239 44.4957L84.6146 44.3123C84.535 44.3088 84.4556 44.3264 84.3812 44.3643C84.3068 44.4021 84.2389 44.4594 84.1816 44.5326C84.1242 44.6059 84.0786 44.6937 84.0474 44.7908C84.0162 44.8879 84.0001 44.9923 84 45.0978L84.001 45.3119Z" fill="#D6D6E3"/>
<path d="M104.373 48.4114C106.665 44.5961 105.834 36.9001 105.927 36.7529C106.009 36.6232 105.693 32.999 103.588 32.1137C103.207 31.3736 102.833 30.54 102.833 30.54C102.796 30.5739 102.755 30.6037 102.712 30.6287C102.695 30.5845 102.679 30.5396 102.663 30.4941C102.636 30.4171 102.611 30.3381 102.587 30.2592C102.645 30.2776 102.706 30.2926 102.766 30.304C102.927 30.3425 103.096 30.3278 103.247 30.2621C103.299 30.2349 103.345 30.1997 103.385 30.1578C103.551 30.0495 103.642 29.8545 103.72 29.6702L104.333 28.2291C104.609 27.5788 104.887 26.9245 105.034 26.2352C105.253 25.1978 105.168 24.1208 104.79 23.1287C104.645 22.7504 104.444 22.3721 104.103 22.1459C103.421 21.6915 102.471 22.0055 101.692 21.7393C101.435 21.6515 101.204 21.5033 100.948 21.4136C100.394 21.2186 99.7697 21.3229 99.2373 21.5657C98.7049 21.8085 98.2739 22.1946 97.808 22.5408C97.5786 22.7133 97.2121 22.8918 96.9419 23.1258C96.6797 23.3266 96.4781 23.5694 96.5168 23.8892C96.5605 24.2549 96.9529 24.4743 97.3184 24.5601C97.379 24.5737 97.4415 24.5844 97.5031 24.5952C97.0693 25.0266 96.7567 25.561 96.5957 26.1462C96.4348 26.7315 96.431 27.3477 96.5847 27.9348C96.7385 28.522 97.0445 29.06 97.4729 29.4966C97.9014 29.9331 98.4378 30.2533 99.0297 30.4259C99.2161 30.7695 99.3774 31.1256 99.5124 31.4916C99.5303 31.5417 99.5479 31.592 99.5651 31.6427C98.9632 31.8104 98.4924 31.9499 98.398 32.0269C98.113 32.259 98.7099 34.2909 98.7099 34.2909C98.5579 34.4801 98.403 34.6956 98.2461 34.9267C97.056 36.7012 96.3025 38.723 96.045 40.8325C95.9457 41.6037 95.8166 42.3925 95.6527 43.1423L88.5342 41.7412L88.5193 41.9138L88.3494 41.8728L87.815 41.7431L87.7942 41.8611L87.7127 41.8231C86.3888 41.2137 84.1579 40.4356 82.6472 41.2381C81.0531 42.0805 84.4936 43.1999 86.7016 43.7956C85.9696 43.8307 85.2694 44.0033 84.7151 44.4069C83.114 45.5848 87.6422 46.1981 89.7807 46.4155L89.8671 46.4243V46.4692L90.608 46.5364L90.7819 46.552L90.7987 46.8114C90.7987 46.8114 91.8595 46.982 93.2769 47.1887C91.6589 47.5856 89.6595 47.8605 88.2709 48.0214C86.799 48.1911 85.5455 49.1973 85.1502 50.6004C85.0224 51.0027 85.01 51.4318 85.1144 51.8406C85.5276 53.2574 85.023 63.6795 84.9088 65.9241L82.2916 67.4032C82.2916 67.4032 78.2194 67.8907 80.9319 68.8277C81.1763 68.9097 81.4262 68.9748 81.6798 69.0227C81.3222 69.249 81.353 69.5444 82.4069 69.9071C85.1214 70.8412 91.4314 69.8661 91.4314 69.8661C91.4314 69.8661 91.2934 68.7683 91.0689 67.8556L91.1384 67.8615C91.1384 67.8615 90.4869 65.4814 91.4751 64.2811C92.4634 63.0809 91.3093 53.9457 91.3093 53.9457C91.3093 53.9457 93.0395 53.2427 98.2113 53.1969C102.383 54.248 104.416 50.4853 104.387 48.5401C104.378 48.4963 104.376 48.4514 104.373 48.4114Z" fill="url(#paint0_linear)"/>
<path d="M89 41.6761L88.5165 43.3119C88.5165 43.3119 88.0819 43.2301 87.4299 43.0902C85.222 42.6122 80.5651 41.4644 82.4318 40.622C84.041 39.895 86.4107 40.602 87.8178 41.1536C88.3329 41.3563 88.7197 41.538 88.8924 41.6234C88.9652 41.658 89 41.6761 89 41.6761Z" fill="#F8B9BF"/>
<path opacity="0.1" d="M88.9556 42.2172L88.4815 43.3119C88.4815 43.3119 87.8889 43.2361 87 43.1064L87.5348 41.3119C88.237 41.4997 88.7644 41.6681 89 41.7473L88.9556 42.2172Z" fill="black"/>
<path d="M88.9007 43.3119L88 43.0742L88.2799 41.3119L89 41.5016L88.9007 43.3119Z" fill="#D9DFE8"/>
<path opacity="0.1" d="M88.7964 43.3119L88 43.2043L88.3001 41.3119L89 41.4064L88.7964 43.3119Z" fill="black"/>
<path d="M99.9964 34.5397C99.9964 34.5397 97.6846 33.1896 96.6571 37.0627C95.6296 40.9359 95.5327 42.7201 95.5327 42.7201L88.2317 41.2445L88 43.94C88 43.94 95.806 46.4874 96.7879 46.3023C97.7699 46.1171 100.956 40.7174 100.956 40.7174C100.956 40.7174 103.852 36.5326 99.9964 34.5397Z" fill="#CD1B1B"/>
<g opacity="0.1">
<path opacity="0.1" d="M88.438 41.9127L88.0009 43.6733C88.0009 43.6733 87.608 43.5852 87.0186 43.4346C85.0226 42.9201 80.8127 41.6848 82.5002 40.7781C83.9549 39.9956 86.0972 40.7566 87.3693 41.3503C87.8349 41.5684 88.1845 41.764 88.3407 41.856C88.4065 41.8931 88.438 41.9127 88.438 41.9127Z" fill="black"/>
<path opacity="0.1" d="M88.3151 42.4096L88.0008 43.6811C88.0008 43.6811 87.6079 43.5931 87.0186 43.4425L87.3731 41.3582C87.8387 41.5763 88.1884 41.7719 88.3446 41.8638L88.3151 42.4096Z" fill="black"/>
<path opacity="0.1" d="M88.3161 43.8014L87.0962 43.5011L87.4753 41.275L88.4507 41.5146L88.3161 43.8014Z" fill="black"/>
<path opacity="0.1" d="M88.316 43.8014L87.7896 43.6723L87.988 41.4011L88.4506 41.5146L88.316 43.8014Z" fill="black"/>
<path opacity="0.1" d="M100.471 35.661C100.471 35.661 98.1282 34.3132 97.087 38.1796C96.0458 42.046 95.9476 43.8272 95.9476 43.8272L88.5492 42.3541L88.3144 45.0449C88.3144 45.0449 96.2246 47.5879 97.2196 47.4031C98.2147 47.2182 101.443 41.8279 101.443 41.8279C101.443 41.8279 104.378 37.6505 100.471 35.661Z" fill="black"/>
</g>
<path d="M84.915 64.503L82.0724 66.3809C82.0724 66.3809 78.3895 66.8984 80.8429 67.8846C83.2963 68.8708 89 67.8411 89 67.8411C89 67.8411 88.6829 64.9017 88.2411 64.4913C87.7992 64.0809 84.915 64.503 84.915 64.503Z" fill="#68739D"/>
<path d="M97.0793 45.3575C97.0793 45.3575 95.6035 46.1549 92.9818 46.8436C91.4452 47.2423 89.5219 47.5254 88.1927 47.6869C87.5123 47.7634 86.8692 48.0471 86.3451 48.5019C85.821 48.9567 85.4394 49.5622 85.2489 50.2415C85.1275 50.6424 85.1158 51.0701 85.2151 51.4775C85.652 53.0553 85 65.8813 85 65.8813L89.5045 66.3119C89.5045 66.3119 88.8901 63.9486 89.8228 62.7575C90.7556 61.5664 89.6666 52.5001 89.6666 52.5001C89.6666 52.5001 91.2986 51.8024 96.1755 51.7565C100.693 52.9526 102.555 47.8424 101.858 46.41C101.16 44.9777 97.0793 45.3575 97.0793 45.3575Z" fill="#6394E2"/>
<g opacity="0.1">
<path opacity="0.1" d="M85.1866 64.5401L82.1662 66.2724C82.1662 66.2724 78.2529 66.7497 80.8598 67.6593C83.4667 68.5689 89.5273 67.6192 89.5273 67.6192C89.5273 67.6192 89.1903 64.9079 88.7208 64.5294C88.2513 64.1509 85.1866 64.5401 85.1866 64.5401Z" fill="black"/>
<path opacity="0.1" d="M96.9591 45.1053C96.9591 45.1053 95.4562 45.8878 92.7864 46.5636C91.2217 46.9549 89.2631 47.2327 87.9095 47.3911C87.2166 47.4662 86.5617 47.7446 86.028 48.1909C85.4942 48.6372 85.1057 49.2314 84.9116 49.898C84.788 50.2914 84.7761 50.7111 84.8772 51.1108C85.3222 52.6591 84.6582 65.2453 84.6582 65.2453L89.2454 65.6678C89.2454 65.6678 88.6197 63.3488 89.5695 62.1799C90.5194 61.0111 89.4104 52.1143 89.4104 52.1143C89.4104 52.1143 91.0724 51.4297 96.0387 51.3847C100.64 52.5584 102.535 47.5437 101.825 46.1382C101.115 44.7326 96.9591 45.1053 96.9591 45.1053Z" fill="black"/>
</g>
<path d="M86.4607 65.4551L83.302 66.8629C83.302 66.8629 79.2116 67.2477 81.9358 67.9902C84.66 68.7326 91 67.9576 91 67.9576C91 67.9576 90.6477 65.754 90.1566 65.4464C89.6656 65.1388 86.4607 65.4551 86.4607 65.4551Z" fill="#68739D"/>
<path d="M97.4924 52.7577C92.0408 52.8036 90.2165 53.5012 90.2165 53.5012C90.2165 53.5012 91.4338 62.5708 90.3911 63.7578C89.3485 64.9448 90.0353 67.3119 90.0353 67.3119L85 66.8813C85 66.8813 85.0086 66.7298 85.0226 66.4588C85.1434 64.2302 85.675 53.885 85.2383 52.4787C85.1281 52.0727 85.1412 51.6464 85.276 51.2468C85.488 50.5667 85.9139 49.9601 86.4997 49.5042C87.0854 49.0483 87.8045 48.7637 88.5657 48.6864C90.0504 48.5259 92.2004 48.2469 93.918 47.8432L94.0021 47.8233C96.881 47.1396 98.4984 46.3572 98.4984 46.3572C98.4984 46.3572 103.06 45.9785 103.84 47.4107C103.95 47.6378 104.004 47.8845 103.999 48.1332C104.038 50.0658 101.893 53.8012 97.4924 52.7577Z" fill="#6394E2"/>
<path d="M90 44.2632L89.8414 46.3119C89.8414 46.3119 89.4603 46.2798 88.8937 46.2089C86.9584 45.9686 82.8531 45.2931 84.3044 43.9941C85.5526 42.8778 87.6594 43.3651 88.9308 43.8169C89.3945 43.983 89.7506 44.1436 89.9091 44.22C89.9675 44.2466 90 44.2632 90 44.2632Z" fill="#F8B9BF"/>
<path d="M102 32.622C102 32.622 101.414 33.1826 100.699 33.7982C99.9135 34.0156 99.0022 34.1952 98.3454 34.3119C98.5803 33.3966 98.439 32.3668 98.1742 31.4641C97.8862 30.5207 97.4909 29.6318 97 28.8233L100.96 27.3119C100.649 28.2741 100.789 29.3714 101.053 30.3256C101.286 31.138 101.604 31.9099 102 32.622Z" fill="#F8B9BF"/>
<path opacity="0.1" d="M90 44.543L89.8926 46.3119C89.8926 46.3119 89.5336 46.2733 89 46.1881L89.0349 43.3119C89.4716 43.5115 89.807 43.7045 89.9563 43.7964L90 44.543Z" fill="black"/>
<path d="M90 46.3119L89 46.166L89.033 43.3119L89.8328 43.4281L90 46.3119Z" fill="#D9DFE8"/>
<path opacity="0.1" d="M102 32.6186C102 32.6186 101.541 33.1803 100.979 33.7971C100.364 34.015 99.6493 34.195 99.1343 34.3119C99.3184 33.3947 99.2076 32.3629 99 31.4584C99.7586 31.1144 100.844 30.6696 101.258 30.3119C101.44 31.1278 101.69 31.9032 102 32.6186Z" fill="black"/>
<path d="M101.156 30.3119C101.156 30.3119 101.663 32.0338 101.982 32.8118C102.301 33.5897 98.2724 34.3119 98.2724 34.3119C98.2724 34.3119 97.8543 32.1442 98.0541 31.8956C98.2538 31.647 100.819 30.8155 101.156 30.3119Z" fill="#D9DFE8"/>
<path opacity="0.1" d="M104 48.1653C103.745 48.5886 103.427 48.9756 103.055 49.3148C100.375 51.709 95.9825 49.2134 94 47.849C96.8783 47.1537 98.4954 46.358 98.4954 46.358C98.4954 46.358 103.057 45.9728 103.836 47.4294C103.948 47.6604 104.003 47.9117 104 48.1653Z" fill="black"/>
<path d="M102.511 49.3565C99.6354 51.9669 94.6751 48.5103 93.3379 47.4921C93.1211 47.3267 93 47.2246 93 47.2246C93.5282 46.7519 93.9923 45.7502 94.3597 44.5247C94.7021 43.3523 94.9494 42.1564 95.0995 40.9476C95.3556 38.9039 96.1053 36.9451 97.2896 35.2259C97.4453 35.0023 97.5949 34.7931 97.7506 34.6103C98.8365 33.2905 100.661 32.4522 100.661 32.4522C104.512 31.3765 105.03 36.8356 104.927 36.9931C104.825 37.1507 105.855 46.3211 102.511 49.3565Z" fill="#FF6363"/>
<path opacity="0.1" d="M103.328 40.7415C103.328 40.7415 100.741 46.9047 99.7061 47.2565C99.1138 47.4567 95.95 47.077 93.3531 46.7148C93.1266 46.5384 93 46.4295 93 46.4295C93.5519 45.9252 94.0369 44.8565 94.4208 43.5492L97.7653 43.7048C97.7653 43.7048 97.5792 41.8226 98.0705 37.6017C98.5618 33.3808 101.285 34.4267 101.285 34.4267C105.791 35.8991 103.328 40.7415 103.328 40.7415Z" fill="black"/>
<path d="M101.361 34.4265C101.361 34.4265 98.7122 33.3816 98.2343 37.6018C97.7563 41.822 97.9374 43.7054 97.9374 43.7054L90 43.3245L90.179 46.1844C90.179 46.1844 98.8177 47.607 99.8242 47.2563C100.831 46.9055 103.348 40.7407 103.348 40.7407C103.348 40.7407 105.74 35.8979 101.361 34.4265Z" fill="#FF6363"/>
<path opacity="0.1" d="M101.29 29.612C101.184 28.9375 101.784 28.9464 102 28.3119L98 29.7772C98.2776 30.2147 98.5254 30.6772 98.741 31.1605C98.9485 31.2328 99.1616 31.2811 99.3771 31.3047C100.331 31.4112 100.629 30.3097 101.29 29.612Z" fill="black"/>
<path d="M102.647 27.284C102.822 25.4035 101.432 23.7382 99.5436 23.5644C97.6551 23.3906 95.9827 24.7742 95.8082 26.6546C95.6337 28.5351 97.0231 30.2005 98.9116 30.3742C100.8 30.548 102.472 29.1645 102.647 27.284Z" fill="#F8B9BF"/>
<path opacity="0.1" d="M96.0045 23.8343C96.0457 24.2026 96.4135 24.4273 96.7555 24.5102C97.0975 24.5932 97.4682 24.5973 97.768 24.7905C98.2469 25.1022 98.3762 25.7943 98.3159 26.3892C98.2824 26.7252 98.2345 27.137 98.495 27.3323C98.5768 27.3852 98.6682 27.4197 98.7632 27.4334C99.035 27.4916 99.314 27.5018 99.5889 27.4638C99.7498 27.4415 99.9156 27.4031 100.068 27.4506C100.319 27.5275 100.467 27.8068 100.516 28.077C100.565 28.3471 100.538 28.6284 100.577 28.9006C100.632 29.2414 100.783 29.5567 101.011 29.8049C101.239 30.0531 101.533 30.2225 101.853 30.2909C102.004 30.3295 102.162 30.3146 102.304 30.2484C102.486 30.1472 102.578 29.9317 102.657 29.7303L103.232 28.2773C103.49 27.6227 103.751 26.9619 103.889 26.2678C104.094 25.2223 104.014 24.137 103.66 23.1372C103.524 22.7567 103.336 22.3753 103.017 22.1466C102.378 21.6882 101.485 22.0049 100.758 21.7419C100.518 21.6538 100.302 21.5041 100.062 21.414C99.5439 21.2187 98.9586 21.3219 98.4596 21.5678C97.9605 21.8137 97.5572 22.2012 97.1185 22.5544C96.7382 22.867 95.9327 23.1979 96.0045 23.8343Z" fill="black"/>
<path d="M96.0044 23.8343C96.0456 24.2026 96.4134 24.4273 96.7554 24.5102C97.0973 24.5932 97.4681 24.5973 97.7679 24.7905C98.2468 25.1022 98.3761 25.7943 98.3158 26.3892C98.2823 26.7252 98.2344 27.137 98.4949 27.3323C98.5768 27.3852 98.6681 27.4197 98.7631 27.4334C99.0349 27.4916 99.3139 27.5018 99.5888 27.4638C99.7498 27.4415 99.9155 27.4031 100.068 27.4506C100.319 27.5275 100.467 27.8068 100.516 28.077C100.565 28.3471 100.538 28.6284 100.577 28.9006C100.632 29.2414 100.783 29.5567 101.011 29.8049C101.239 30.0531 101.533 30.2225 101.853 30.2909C102.004 30.3295 102.162 30.3146 102.304 30.2484C102.486 30.1472 102.578 29.9317 102.657 29.7303L103.232 28.2773C103.49 27.6227 103.751 26.9619 103.889 26.2678C104.094 25.2223 104.014 24.137 103.66 23.1372C103.524 22.7567 103.336 22.3753 103.017 22.1466C102.378 21.6882 101.485 22.0049 100.758 21.7419C100.518 21.6538 100.302 21.5041 100.062 21.414C99.5438 21.2187 98.9586 21.3219 98.4595 21.5678C97.9604 21.8137 97.5571 22.2012 97.1184 22.5544C96.7391 22.867 95.9335 23.1979 96.0044 23.8343Z" fill="#343434"/>
<path opacity="0.1" d="M99 38.3119C99 38.3119 97.4895 42.4396 95.9857 42.8216C94.4819 43.2036 95.1461 43.3119 95.1461 43.3119" fill="black"/>
<path d="M99 55.3119H97V65.3119H99V55.3119Z" fill="#D6D6E3"/>
<path opacity="0.1" d="M99 55.3119H97V56.3119H99V55.3119Z" fill="black"/>
<path d="M94 55.724V55.8998C94 55.9539 94.0134 56.0075 94.0394 56.0575C94.0653 56.1075 94.1034 56.1529 94.1515 56.1912C94.1995 56.2295 94.2565 56.2598 94.3192 56.2805C94.3819 56.3012 94.4492 56.3119 94.5171 56.3119H101.483C101.551 56.3119 101.618 56.3012 101.681 56.2805C101.744 56.2598 101.801 56.2295 101.849 56.1912C101.897 56.1529 101.935 56.1075 101.961 56.0575C101.987 56.0075 102 55.9539 102 55.8998V55.724C102 55.6699 101.987 55.6163 101.961 55.5663C101.935 55.5163 101.897 55.4709 101.849 55.4326C101.801 55.3943 101.744 55.364 101.681 55.3433C101.618 55.3225 101.551 55.3119 101.483 55.3119H94.5171C94.4492 55.3119 94.3819 55.3225 94.3192 55.3433C94.2565 55.364 94.1995 55.3943 94.1515 55.4326C94.1034 55.4709 94.0653 55.5163 94.0394 55.5663C94.0134 55.6163 94 55.6699 94 55.724Z" fill="#D6D6E3"/>
<path d="M103.492 64.3119H93.5075C93.2272 64.3119 93 64.7439 93 65.2768V65.347C93 65.8799 93.2272 66.3119 93.5075 66.3119H103.492C103.773 66.3119 104 65.8799 104 65.347V65.2768C104 64.7439 103.773 64.3119 103.492 64.3119Z" fill="#D6D6E3"/>
<path d="M103 67.3119C103.552 67.3119 104 67.088 104 66.8119C104 66.5357 103.552 66.3119 103 66.3119C102.448 66.3119 102 66.5357 102 66.8119C102 67.088 102.448 67.3119 103 67.3119Z" fill="#535461"/>
<path d="M98 67.3119C98.5523 67.3119 99 67.088 99 66.8119C99 66.5357 98.5523 66.3119 98 66.3119C97.4477 66.3119 97 66.5357 97 66.8119C97 67.088 97.4477 67.3119 98 67.3119Z" fill="#535461"/>
<path d="M106.255 44.3119H97.7454C97.3337 44.3119 97 44.7439 97 45.2767V45.3471C97 45.8799 97.3337 46.3119 97.7454 46.3119H106.255C106.666 46.3119 107 45.8799 107 45.3471V45.2767C107 44.7439 106.666 44.3119 106.255 44.3119Z" fill="#D6D6E3"/>
<path opacity="0.1" d="M99 64.3119C99 64.3119 98.2143 66.5619 97 64.3119H99Z" fill="black"/>
<path opacity="0.1" d="M107 45.3119V45.4728C107 45.6953 106.933 45.9088 106.814 46.0661C106.695 46.2235 106.533 46.3119 106.364 46.3119H97.6358C97.4672 46.3119 97.3055 46.2235 97.1862 46.0661C97.067 45.9088 97 45.6953 97 45.4728V45.3119H107Z" fill="black"/>
<path d="M89 47.3119H88V71.3119H89V47.3119Z" fill="#D6D6E3"/>
<path opacity="0.1" d="M89 47.3119H88V48.3119H89V47.3119Z" fill="black"/>
<path d="M34 56.132V56.4847C34 56.7041 33.9523 56.9145 33.8675 57.0696C33.7826 57.2247 33.6675 57.3119 33.5475 57.3119H27.4525C27.3325 57.3119 27.2174 57.2247 27.1325 57.0696C27.0477 56.9145 27 56.7041 27 56.4847V56.132C27.001 55.9138 27.0491 55.7053 27.1339 55.5517C27.2186 55.3981 27.3331 55.3119 27.4525 55.3119H33.5475C33.607 55.3119 33.6658 55.3333 33.7207 55.3749C33.7756 55.4164 33.8255 55.4773 33.8675 55.5542C33.9095 55.631 33.9428 55.7222 33.9656 55.8225C33.9883 55.9229 34 56.0304 34 56.139V56.132Z" fill="#D6D6E3"/>
<path opacity="0.1" d="M34 56.3119H27C27.0441 55.9948 27.0992 55.7408 27.1615 55.5679C27.2237 55.3951 27.2914 55.3077 27.3598 55.312H33.6402C33.7086 55.3077 33.7763 55.3951 33.8386 55.5679C33.9008 55.7408 33.9559 55.9948 34 56.3119Z" fill="black"/>
<path d="M35.4464 65.3119H24.5536C24.2479 65.3119 24 65.5279 24 65.7943V65.8294C24 66.0959 24.2479 66.3119 24.5536 66.3119H35.4464C35.7521 66.3119 36 66.0959 36 65.8294V65.7943C36 65.5279 35.7521 65.3119 35.4464 65.3119Z" fill="#D6D6E3"/>
<path d="M25 68.3119C25.5523 68.3119 26 67.8642 26 67.3119C26 66.7596 25.5523 66.3119 25 66.3119C24.4477 66.3119 24 66.7596 24 67.3119C24 67.8642 24.4477 68.3119 25 68.3119Z" fill="#535461"/>
<path d="M35 68.3119C35.5523 68.3119 36 67.8642 36 67.3119C36 66.7596 35.5523 66.3119 35 66.3119C34.4477 66.3119 34 66.7596 34 67.3119C34 67.8642 34.4477 68.3119 35 68.3119Z" fill="#535461"/>
<path d="M66 38.3119C66 38.3119 64.4354 35.0984 65.0072 32.3053C65.2536 31.1355 65.1574 29.9069 64.7333 28.804C64.5297 28.2824 64.2842 27.783 64 27.3119" stroke="#535461" stroke-width="2" stroke-miterlimit="10"/>
<path d="M63.9927 28.8533C64.0514 29.1928 63.7369 30.3119 63.7369 30.3119C63.7369 30.3119 63.0809 29.4632 63.0214 29.1237C63.0015 29.0407 62.9954 28.9534 63.0034 28.8673C63.0114 28.7812 63.0335 28.6981 63.0681 28.6233C63.1027 28.5484 63.1491 28.4834 63.2045 28.4324C63.2599 28.3814 63.323 28.3454 63.3899 28.3267C63.4568 28.308 63.526 28.307 63.5933 28.3238C63.6605 28.3406 63.7242 28.3748 63.7805 28.4242C63.8368 28.4737 63.8844 28.5373 63.9203 28.6112C63.9562 28.685 63.9797 28.7674 63.9892 28.8533H63.9927Z" fill="#6C63FF"/>
<path d="M65.9214 27.6729C65.7288 28.181 64.236 29.3119 64.236 29.3119C64.236 29.3119 63.8618 27.4953 64.0558 26.99C64.0974 26.8642 64.1643 26.7479 64.2526 26.6482C64.3409 26.5485 64.4488 26.4674 64.5697 26.4098C64.6906 26.3522 64.822 26.3193 64.9562 26.313C65.0903 26.3067 65.2243 26.3272 65.3502 26.3733C65.4761 26.4193 65.5913 26.49 65.6888 26.581C65.7863 26.672 65.8641 26.7815 65.9176 26.9028C65.971 27.0242 65.9991 27.155 66 27.2873C66.0009 27.4197 65.9746 27.5508 65.9228 27.6729H65.9214Z" fill="#6C63FF"/>
<path d="M66.7196 31.8179C66.3996 32.1131 65 32.3119 65 32.3119C65 32.3119 65.4561 30.8017 65.7762 30.5065C65.8521 30.4352 65.9398 30.3817 66.0341 30.349C66.1284 30.3163 66.2276 30.305 66.3257 30.3159C66.4239 30.3268 66.5192 30.3596 66.6062 30.4124C66.6931 30.4652 66.7699 30.537 66.8322 30.6236C66.8945 30.7101 66.941 30.8098 66.9691 30.9169C66.9972 31.024 67.0063 31.1362 66.9958 31.2473C66.9853 31.3583 66.9555 31.4659 66.9081 31.5639C66.8607 31.6618 66.7967 31.7481 66.7196 31.8179Z" fill="#6C63FF"/>
<path d="M66.7819 33.947C66.4838 34.1047 65 34.3119 65 34.3119C65 34.3119 65.2456 33.6074 65.5437 33.4502C65.6134 33.4111 65.6995 33.3788 65.7969 33.3552C65.8942 33.3317 66.0009 33.3174 66.1105 33.3132C66.22 33.309 66.3304 33.315 66.4348 33.3307C66.5393 33.3465 66.6358 33.3718 66.7187 33.4051C66.8015 33.4384 66.869 33.479 66.9172 33.5245C66.9653 33.57 66.9931 33.6195 66.9989 33.67C67.0046 33.7205 66.9883 33.7711 66.9509 33.8187C66.9134 33.8663 66.8556 33.9099 66.7808 33.947H66.7819Z" fill="#6C63FF"/>
<path d="M63.348 29.1823C63.6774 29.3177 65 29.3119 65 29.3119C65 29.3119 64.4152 28.5238 64.0858 28.3885C64.0076 28.3543 63.9198 28.3309 63.8277 28.3196C63.7357 28.3083 63.6411 28.3094 63.5497 28.3228C63.4583 28.3362 63.3718 28.3617 63.2955 28.3977C63.2191 28.4336 63.1543 28.4794 63.105 28.5323C63.0557 28.5852 63.0229 28.6441 63.0084 28.7055C62.9939 28.767 62.9982 28.8297 63.0208 28.8901C63.0435 28.9504 63.0841 29.0072 63.1403 29.0569C63.1965 29.1067 63.2671 29.1484 63.348 29.1798V29.1823Z" fill="#6C63FF"/>
<path d="M63.468 33.2899C63.8195 33.4304 65 32.8515 65 32.8515C65 32.8515 64.1445 31.4717 63.793 31.334C63.6273 31.2797 63.4543 31.3262 63.3103 31.4638C63.1663 31.6013 63.0625 31.8192 63.0205 32.0718C62.9785 32.3245 63.0016 32.5924 63.085 32.8194C63.1684 33.0464 63.3057 33.215 63.468 33.2899Z" fill="#6C63FF"/>
<path d="M63.3992 35.2659C63.7386 35.3783 65 35.2492 65 35.2492C65 35.2492 64.2891 34.4678 63.9496 34.3554C63.7864 34.3013 63.6008 34.2975 63.4337 34.3448C63.2666 34.392 63.1317 34.4864 63.0587 34.6073C62.9857 34.7281 62.9806 34.8655 63.0444 34.9891C63.1083 35.1128 63.2359 35.2126 63.3992 35.2666V35.2659Z" fill="#6C63FF"/>
<path d="M63.9927 28.8533C64.0514 29.1928 63.7369 30.3119 63.7369 30.3119C63.7369 30.3119 63.0809 29.4632 63.0214 29.1237C63.0015 29.0407 62.9954 28.9534 63.0034 28.8673C63.0114 28.7812 63.0335 28.6981 63.0681 28.6233C63.1027 28.5484 63.1491 28.4834 63.2045 28.4324C63.2599 28.3814 63.323 28.3454 63.3899 28.3267C63.4568 28.308 63.526 28.307 63.5933 28.3238C63.6605 28.3406 63.7242 28.3748 63.7805 28.4242C63.8368 28.4737 63.8844 28.5373 63.9203 28.6112C63.9562 28.685 63.9797 28.7674 63.9892 28.8533H63.9927Z" fill="#CD1B1B"/>
<path d="M65.9214 27.6729C65.7288 28.181 64.236 29.3119 64.236 29.3119C64.236 29.3119 63.8618 27.4953 64.0558 26.99C64.0974 26.8642 64.1643 26.7479 64.2526 26.6482C64.3409 26.5485 64.4488 26.4674 64.5697 26.4098C64.6906 26.3522 64.822 26.3193 64.9562 26.313C65.0903 26.3067 65.2243 26.3272 65.3502 26.3733C65.4761 26.4193 65.5913 26.49 65.6888 26.581C65.7863 26.672 65.8641 26.7815 65.9176 26.9028C65.971 27.0242 65.9991 27.155 66 27.2873C66.0009 27.4197 65.9746 27.5508 65.9228 27.6729H65.9214Z" fill="#CD1B1B"/>
<path d="M66.7196 31.8179C66.3996 32.1131 65 32.3119 65 32.3119C65 32.3119 65.4561 30.8017 65.7762 30.5065C65.8521 30.4352 65.9398 30.3817 66.0341 30.349C66.1284 30.3163 66.2276 30.305 66.3257 30.3159C66.4239 30.3268 66.5192 30.3596 66.6062 30.4124C66.6931 30.4652 66.7699 30.537 66.8322 30.6236C66.8945 30.7101 66.941 30.8098 66.9691 30.9169C66.9972 31.024 67.0063 31.1362 66.9958 31.2473C66.9853 31.3583 66.9555 31.4659 66.9081 31.5639C66.8607 31.6618 66.7967 31.7481 66.7196 31.8179Z" fill="#CD1B1B"/>
<path d="M66.7819 33.947C66.4838 34.1047 65 34.3119 65 34.3119C65 34.3119 65.2456 33.6074 65.5437 33.4502C65.6134 33.4111 65.6995 33.3788 65.7969 33.3552C65.8942 33.3317 66.0009 33.3174 66.1105 33.3132C66.22 33.309 66.3304 33.315 66.4348 33.3307C66.5393 33.3465 66.6358 33.3718 66.7187 33.4051C66.8015 33.4384 66.869 33.479 66.9172 33.5245C66.9653 33.57 66.9931 33.6195 66.9989 33.67C67.0046 33.7205 66.9883 33.7711 66.9509 33.8187C66.9134 33.8663 66.8556 33.9099 66.7808 33.947H66.7819Z" fill="#CD1B1B"/>
<path d="M63.348 29.1823C63.6774 29.3177 65 29.3119 65 29.3119C65 29.3119 64.4152 28.5238 64.0858 28.3885C64.0076 28.3543 63.9198 28.3309 63.8277 28.3196C63.7357 28.3083 63.6411 28.3094 63.5497 28.3228C63.4583 28.3362 63.3718 28.3617 63.2955 28.3977C63.2191 28.4336 63.1543 28.4794 63.105 28.5323C63.0557 28.5852 63.0229 28.6441 63.0084 28.7055C62.9939 28.767 62.9982 28.8297 63.0208 28.8901C63.0435 28.9504 63.0841 29.0072 63.1403 29.0569C63.1965 29.1067 63.2671 29.1484 63.348 29.1798V29.1823Z" fill="#CD1B1B"/>
<path d="M63.468 33.2899C63.8195 33.4304 65 32.8515 65 32.8515C65 32.8515 64.1445 31.4717 63.793 31.334C63.6273 31.2797 63.4543 31.3262 63.3103 31.4638C63.1663 31.6013 63.0625 31.8192 63.0205 32.0718C62.9785 32.3245 63.0016 32.5924 63.085 32.8194C63.1684 33.0464 63.3057 33.215 63.468 33.2899Z" fill="#CD1B1B"/>
<path d="M63.3992 35.2659C63.7386 35.3783 65 35.2492 65 35.2492C65 35.2492 64.2891 34.4678 63.9496 34.3554C63.7864 34.3013 63.6008 34.2975 63.4337 34.3448C63.2666 34.392 63.1317 34.4864 63.0587 34.6073C62.9857 34.7281 62.9806 34.8655 63.0444 34.9891C63.1083 35.1128 63.2359 35.2126 63.3992 35.2666V35.2659Z" fill="#CD1B1B"/>
<path d="M65 45.3119C64.7268 45.3119 64.4564 45.261 64.2056 45.1622C63.9549 45.0634 63.729 44.9188 63.5419 44.7374C63.3549 44.556 63.2107 44.3416 63.1181 44.1075C63.0256 43.8733 62.9868 43.6244 63.004 43.3761L63.5628 35.3119H66.4372L66.996 43.3761C67.0132 43.6244 66.9744 43.8733 66.8819 44.1075C66.7893 44.3416 66.6451 44.556 66.4581 44.7374C66.271 44.9188 66.0451 45.0634 65.7944 45.1622C65.5436 45.261 65.2732 45.3119 65 45.3119Z" fill="#CD1B1B"/>
<path opacity="0.1" d="M4.93227 0.0324097H3.2207V7.09311H4.93227V0.0324097Z" fill="#FF6363"/>
<path opacity="0.1" d="M7.13271 0.0324097H5.42114V7.09311H7.13271V0.0324097Z" fill="#FF6363"/>
<path opacity="0.1" d="M9.33315 0.0324097H7.62158V7.09311H9.33315V0.0324097Z" fill="#FF6363"/>
<path opacity="0.1" d="M11.5338 0.0324097H9.82227V7.09311H11.5338V0.0324097Z" fill="#FF6363"/>
<path opacity="0.1" d="M15.9352 0.0324097H14.2236V7.09311H15.9352V0.0324097Z" fill="#FF6363"/>
<path opacity="0.1" d="M18.1356 0.0324097H16.4241V7.09311H18.1356V0.0324097Z" fill="#FF6363"/>
<path opacity="0.1" d="M13.7345 0.0324097H12.0229V7.09311H13.7345V0.0324097Z" fill="#FF6363"/>
<path opacity="0.1" d="M19.7451 -1.27287e-05L18.1919 0.715942L21.1706 7.12342L22.7238 6.40746L19.7451 -1.27287e-05Z" fill="#FF6363"/>
<path d="M44.7859 67.5L42.2832 65.8838C42.2704 63.6076 42.2349 53.0402 42.7028 51.6264C42.8234 51.2172 42.8303 50.7821 42.7225 50.3692C42.3974 48.9325 41.2116 47.8597 39.7745 47.6234C38.4193 47.4001 36.4691 47.0342 34.8991 46.5616C36.2987 46.415 37.3476 46.2884 37.3476 46.2884L37.3752 46.0262L38.2764 45.9823V45.9434L38.3621 45.9385C40.4669 45.8118 44.9366 45.3901 43.4178 44.1279C42.8968 43.6952 42.2172 43.4908 41.5002 43.422C43.6926 42.9155 47.1192 41.9344 45.5916 41.0122C44.1398 40.1368 41.9168 40.8248 40.5901 41.3841L40.5083 41.419L40.4935 41.2983L39.9636 41.406L39.7952 41.4399L39.7873 41.2644L32.352 42.427C32.2937 41.5646 32.1925 40.7057 32.0487 39.8537C32.2151 38.731 32.9893 37.0939 32.7164 36.2155C32.3993 35.1956 31.0972 34.8616 30.5496 33.9404C30.4058 33.7001 30.263 33.4747 30.1231 33.2773C29.817 32.8563 29.4651 32.4713 29.0741 32.1298C29.0978 31.5374 29.2287 30.9545 29.4602 30.4099C29.6087 30.0456 29.7825 29.6925 29.9803 29.3531C30.8469 29.1355 31.5989 28.5913 32.0828 27.8317C32.5668 27.0721 32.7462 26.1542 32.5845 25.2653C33.0553 25.4697 33.6275 25.4906 33.922 25.0918L33.7822 25.037C33.7959 25.022 33.8097 25.0071 33.8216 24.9901C33.5349 24.8795 33.2306 24.7538 33.006 24.5524C32.9492 24.4878 32.9011 24.4157 32.8632 24.3381C32.7273 24.0589 32.743 23.7239 32.613 23.4408C32.5518 23.3118 32.465 23.1971 32.3579 23.1038C32.1298 22.8677 31.8413 22.7006 31.5247 22.6212C31.1691 22.5165 30.7948 22.4637 30.454 22.3221C29.9896 21.7762 29.3765 21.381 28.6913 21.1859C28.0062 20.9909 27.2794 21.0046 26.6019 21.2254L26.4788 21.2683C26.5643 20.851 26.4846 20.4164 26.2567 20.058C26.0289 19.6996 25.6711 19.4461 25.2605 19.352C24.8499 19.2579 24.4191 19.3308 24.061 19.5549C23.7029 19.779 23.4461 20.1365 23.3457 20.5504C23.3769 20.187 23.5282 19.8449 23.7751 19.5793C23.7495 19.6012 23.7229 19.6222 23.6983 19.6451C23.5445 19.7915 23.4207 19.9671 23.334 20.1619C23.2472 20.3567 23.1992 20.5669 23.1927 20.7805C23.1862 20.9941 23.2214 21.2069 23.2961 21.4067C23.3709 21.6066 23.4838 21.7896 23.6284 21.9452L23.657 21.9732C23.7707 22.114 23.9068 22.2346 24.0598 22.3301C23.7783 22.2294 23.53 22.0514 23.3428 21.816C23.1556 21.5805 23.0369 21.297 23 20.9971C23 21.031 23 21.0649 23 21.0968C23.0123 21.311 23.0663 21.5207 23.159 21.7137C23.2517 21.9068 23.3812 22.0793 23.54 22.2215C23.6988 22.3636 23.8839 22.4726 24.0845 22.542C24.2851 22.6115 24.4973 22.6401 24.7089 22.6262L24.7532 22.6212L24.7296 22.6541C24.2715 23.3361 24.0544 24.1546 24.1134 24.9771C24.1724 25.7995 24.504 26.5777 25.0546 27.1856C25.12 27.3371 25.2069 27.4782 25.3126 27.6043C25.3498 27.6474 25.3896 27.688 25.4318 27.7259C25.7016 28.014 26.0705 28.1861 26.4621 28.2065C26.5277 28.2856 26.5977 28.3617 26.6719 28.4348C26.6069 28.7145 26.522 28.9891 26.4177 29.2564C26.2078 29.7886 25.9466 30.2985 25.6377 30.7788C23.5102 31.391 23.3231 35.048 23.3999 35.1866C23.4915 35.3521 23.0827 41.095 24.6586 48.0322C24.5936 50.0153 25.7362 53.2945 29.7922 52.43C34.8646 52.7042 36.5282 53.4909 36.5282 53.4909C36.5282 53.4909 36.0465 62.4212 36.734 63.7213C37.1644 64.5358 36.8591 65.7323 36.537 66.5767C36.4176 66.7856 36.3225 67.0078 36.2534 67.2387C36.1549 67.4491 36.083 67.5767 36.083 67.5767H36.1519C35.8919 68.491 35.7077 69.5947 35.7077 69.5947C35.7077 69.5947 41.8567 70.8579 44.5614 70.0314C45.6113 69.7103 45.6546 69.4132 45.3138 69.168C45.5649 69.1306 45.813 69.0756 46.0565 69.0035C48.7631 68.1769 44.7859 67.5 44.7859 67.5Z" fill="url(#paint1_linear)"/>
<path d="M32 25.8119C32 26.5041 31.7654 27.1808 31.3259 27.7564C30.8864 28.332 30.2616 28.7806 29.5307 29.0455C28.7998 29.3104 27.9956 29.3797 27.2196 29.2446C26.4437 29.1096 25.731 28.7762 25.1716 28.2868C24.6122 27.7973 24.2312 27.1736 24.0769 26.4947C23.9225 25.8158 24.0017 25.112 24.3045 24.4725C24.6072 23.833 25.1199 23.2863 25.7777 22.9017C26.4355 22.5172 27.2089 22.3119 28 22.3119C28.5253 22.3119 29.0454 22.4024 29.5307 22.5783C30.016 22.7542 30.457 23.012 30.8284 23.337C31.1999 23.662 31.4945 24.0479 31.6955 24.4725C31.8965 24.8971 32 25.3523 32 25.8119Z" fill="#343434"/>
<path d="M39 41.977L39.3954 44.3119C39.3954 44.3119 39.8353 44.2183 40.4864 44.0556C42.7105 43.4981 47.4101 42.1218 45.5901 40.8377C44.0246 39.7344 41.6271 40.6019 40.1971 41.3068C39.6728 41.5631 39.2784 41.8014 39.1018 41.9129C39.0358 41.9526 39 41.977 39 41.977Z" fill="#F8B9BF"/>
<path opacity="0.1" d="M39.0141 42.6385L39.4241 44.3119C39.4241 44.3119 40.0595 44.2185 41 44.056L40.5822 41.3119C39.8247 41.5678 39.2551 41.8057 39 41.917L39.0141 42.6385Z" fill="black"/>
<path d="M39.0264 44.3119L40 44.0157L39.7795 41.3119L39 41.5491L39.0264 44.3119Z" fill="#D9DFE8"/>
<path opacity="0.1" d="M39.0591 44.3119L40 44.1777L39.8278 41.3119L39 41.4289L39.0591 44.3119Z" fill="black"/>
<path d="M28.1846 34.4989C28.1846 34.4989 30.6005 33.2628 31.4784 37.147C32.3563 41.0311 32.3692 42.8017 32.3692 42.8017L39.8832 41.6618L40 44.343C40 44.343 31.9238 46.5227 30.9311 46.2953C29.9384 46.0679 26.9246 40.5764 26.9246 40.5764C26.9246 40.5764 24.1633 36.3054 28.1846 34.4989Z" fill="#CD1A1A"/>
<g opacity="0.1">
<path opacity="0.1" d="M39.3093 42.2814L39.6679 44.0635C39.6679 44.0635 40.0667 43.9921 40.657 43.8679C42.6736 43.4424 46.9346 42.392 45.2844 41.4119C43.8651 40.5698 41.6913 41.2319 40.3947 41.7699C39.9193 41.9655 39.5618 42.1474 39.4017 42.2325C39.3417 42.2628 39.3093 42.2814 39.3093 42.2814Z" fill="black"/>
<path opacity="0.1" d="M39.4105 42.7841L39.6678 44.0635C39.6678 44.0635 40.0666 43.9921 40.6569 43.8679L40.3947 41.7698C39.9193 41.9655 39.5617 42.1474 39.4016 42.2325L39.4105 42.7841Z" fill="black"/>
<path opacity="0.1" d="M39.3486 44.174L40.5803 43.9285L40.3014 41.6877L39.3152 41.8843L39.3486 44.174Z" fill="black"/>
<path opacity="0.1" d="M39.3486 44.174L39.88 44.0674L39.7827 41.7914L39.3152 41.8843L39.3486 44.174Z" fill="black"/>
<path opacity="0.1" d="M28.192 34.6396C28.192 34.6396 30.5897 33.3954 31.461 37.3049C32.3322 41.2143 32.345 42.9964 32.345 42.9964L39.8023 41.8491L39.9183 44.5477C39.9183 44.5477 31.903 46.7415 30.9178 46.5127C29.9326 46.2838 26.9416 40.7566 26.9416 40.7566C26.9416 40.7566 24.2011 36.4578 28.192 34.6396Z" fill="#FF6363"/>
</g>
<path d="M42.2021 65.5396L44.9654 66.982C44.9654 66.982 48.6193 67.4853 46.1339 68.1025C43.6484 68.7197 38 67.7761 38 67.7761C38 67.7761 38.4292 65.6854 38.886 65.4083C39.3429 65.1312 42.2021 65.5396 42.2021 65.5396Z" fill="#F37291"/>
<path d="M31.0937 45.4222C31.0937 45.4222 32.5614 46.2705 35.2011 47.0631C36.7485 47.5278 38.695 47.8869 40.0399 48.1051C40.7298 48.2111 41.3725 48.5189 41.8863 48.9892C42.4001 49.4596 42.7617 50.0714 42.9253 50.7469C43.0309 51.1441 43.0244 51.5625 42.9066 51.9562C42.3934 53.4846 42.4977 66.0917 42.4977 66.0917L37.8928 66.3119C37.8928 66.3119 38.6213 64.0214 37.7237 62.812C36.8261 61.6027 38.3293 52.7605 38.3293 52.7605C38.3293 52.7605 36.6983 52.0032 31.7337 51.74C27.0806 52.7184 25.4084 47.6159 26.1811 46.2422C26.9538 44.8684 31.0937 45.4222 31.0937 45.4222Z" fill="#071A62"/>
<g opacity="0.1">
<path opacity="0.1" d="M41.5594 65.03L44.5003 66.8884C44.5003 66.8884 48.3891 67.5369 45.7438 68.3321C43.0986 69.1273 37.0872 67.9115 37.0872 67.9115C37.0872 67.9115 37.5439 65.2178 38.0301 64.8608C38.5164 64.5038 41.5594 65.03 41.5594 65.03Z" fill="black"/>
</g>
<path d="M39.669 66.6155L42.7393 68.5387C42.7393 68.5387 46.7992 69.2098 44.0376 70.0327C41.276 70.8556 35 69.5974 35 69.5974C35 69.5974 35.4769 66.8099 35.9845 66.4404C36.4921 66.071 39.669 66.6155 39.669 66.6155Z" fill="#F37291"/>
<path d="M29.9353 52.6706C34.8124 52.935 36.4146 53.6959 36.4146 53.6959C36.4146 53.6959 35.952 62.3295 36.6077 63.5859C37.3079 64.919 35.9819 67.3119 35.9819 67.3119L40.5055 67.0907C40.5055 67.0907 40.5055 66.9413 40.5055 66.6739C40.492 64.4737 40.4592 54.2573 40.9083 52.8878C41.024 52.4922 41.0303 52.0718 40.9266 51.6727C40.7658 50.9941 40.4105 50.3794 39.9058 49.9068C39.4011 49.4342 38.7698 49.125 38.0921 49.0183C36.77 48.8001 34.8587 48.4393 33.3386 47.9723L33.2643 47.9487C30.7175 47.1622 29.3046 46.3236 29.3046 46.3236C29.3046 46.3236 26.2924 46.1113 25.5382 47.4916C25.4416 47.6705 25.0253 48.0224 25.008 48.3066C24.895 50.2079 25.9583 53.5229 29.9353 52.6706Z" fill="#162A73"/>
<path d="M38 44.127L38.0689 46.3119C38.0689 46.3119 38.3881 46.2989 38.8636 46.2554C40.4863 46.1082 43.9331 45.6209 42.762 44.1599C41.7551 42.9038 39.9813 43.3041 38.907 43.7126C38.5128 43.8633 38.2099 44.0139 38.0782 44.0857C38.0271 44.1116 38 44.127 38 44.127Z" fill="#F8B9BF"/>
<path d="M25 32.4612C25 32.4612 25.5468 33.0414 26.2249 33.6834C26.9814 33.937 27.8655 34.1626 28.4971 34.3119C28.3011 33.3972 28.4752 32.4039 28.7641 31.5296C29.0777 30.6202 29.4937 29.7697 30 29.0032L26.1994 27.3119C26.4683 28.2715 26.2906 29.3433 26.0016 30.2603C25.7466 31.0442 25.4099 31.7841 25 32.4612Z" fill="#F8B9BF"/>
<path d="M24.392 49.1873C27.1424 52.0579 32.2713 48.6464 33.6506 47.636C33.8747 47.4714 34 47.3701 34 47.3701C33.4907 46.8496 32.6757 46.3679 32.363 45.0641C32.0647 43.7333 31.8624 42.3826 31.7579 41.0226C31.6734 39.9437 32.7837 37.8892 32.4628 36.8645C32.142 35.8398 30.8208 35.5034 30.2656 34.5759C30.1199 34.3345 29.9753 34.1075 29.8327 33.9091C28.8079 32.4774 27.0222 31.513 27.0222 31.513C23.2175 30.2092 22.919 35.6639 23.0138 35.8337C23.1085 36.0035 22.6735 42.0166 24.392 49.1873Z" fill="#FF6363"/>
<path opacity="0.1" d="M24.5182 40.5896C24.5182 40.5896 26.6922 46.8292 27.6514 47.2227C28.2007 47.4478 31.1966 47.2051 33.6562 46.9562C33.8767 46.79 34 46.6877 34 46.6877C33.4988 46.1621 33.0909 45.0788 32.7842 43.7631L29.628 43.7745C29.628 43.7745 29.8835 41.9156 29.6009 37.6928C29.3182 33.4701 26.7092 34.3985 26.7092 34.3985C22.4063 35.6698 24.5182 40.5896 24.5182 40.5896Z" fill="black"/>
<path d="M26.8452 34.3973C26.8452 34.3973 29.582 33.475 29.882 37.6921C30.182 41.9093 29.9136 43.7746 29.9136 43.7746L38 43.7457L37.6895 46.5819C37.6895 46.5819 28.8473 47.6148 27.8367 47.2233C26.8262 46.8319 24.5451 40.5903 24.5451 40.5903C24.5451 40.5903 22.3251 35.6687 26.8452 34.3973Z" fill="#FF6363"/>
<path opacity="0.1" d="M27.5034 29.5918C27.6033 28.9518 27.1438 28.9316 27 28.3119L30 29.9117C29.7765 30.3181 29.575 30.7499 29.3974 31.2033C29.2376 31.2624 29.0743 31.2981 28.9099 31.31C28.1807 31.3633 27.9859 30.2935 27.5034 29.5918Z" fill="black"/>
<path d="M29.3538 30.2975C31.2481 30.2069 32.7101 28.6043 32.6191 26.718C32.5281 24.8317 30.9186 23.376 29.0243 23.4666C27.1299 23.5572 25.668 25.1598 25.759 27.0461C25.85 28.9324 27.4594 30.3881 29.3538 30.2975Z" fill="#F8B9BF"/>
<path opacity="0.1" d="M28 38.3119C28 38.3119 28.6786 42.3902 29.4798 42.8067C30.2811 43.2231 29.9179 43.3119 29.9179 43.3119" fill="black"/>
<path opacity="0.1" d="M32 40.2894C32 40.2894 31.076 40.5481 30 39.3119L32 40.2894Z" fill="black"/>
<path d="M30.5 26.3119C31.3284 26.3119 32 25.8642 32 25.3119C32 24.7596 31.3284 24.3119 30.5 24.3119C29.6716 24.3119 29 24.7596 29 25.3119C29 25.8642 29.6716 26.3119 30.5 26.3119Z" fill="#343434"/>
<path d="M29.4197 25.8582C29.2185 25.6487 29.1066 25.3723 29.1066 25.085C29.1066 24.7978 29.2185 24.5214 29.4197 24.3119C29.4009 24.3267 29.3821 24.3416 29.3647 24.3578C29.141 24.5631 29.01 24.8468 29.0006 25.1465C28.9911 25.4462 29.1038 25.7372 29.3141 25.9557C29.5243 26.1741 29.8148 26.3021 30.1216 26.3113C30.4284 26.3206 30.7264 26.2105 30.9501 26.0051C30.9682 25.9889 30.9841 25.9712 31 25.9543C30.7734 26.1374 30.4839 26.2294 30.1904 26.2115C29.8968 26.1937 29.6213 26.0674 29.4197 25.8582Z" fill="#343434"/>
<path d="M30.0534 26.2007C29.7994 26.2143 29.5491 26.1414 29.3534 25.997C29.1577 25.8525 29.0314 25.6473 29 25.423C29 25.4413 29 25.4597 29 25.4785C29.0166 25.7138 29.1378 25.9336 29.3368 26.0896C29.4354 26.1668 29.5502 26.226 29.6745 26.2639C29.7989 26.3017 29.9304 26.3174 30.0616 26.3102C30.1928 26.3029 30.3211 26.2727 30.4391 26.2214C30.5572 26.17 30.6627 26.0986 30.7497 26.011C30.8366 25.9235 30.9033 25.8216 30.9459 25.7112C30.9886 25.6007 31.0063 25.4839 30.998 25.3674C30.998 25.3486 30.9937 25.3308 30.9912 25.3119C30.9917 25.5382 30.8949 25.7562 30.7207 25.9214C30.5464 26.0865 30.3078 26.1864 30.0534 26.2007Z" fill="#343434"/>
<path opacity="0.1" d="M30.5415 23.2441C30.9115 23.4382 31.335 23.492 31.7317 23.6144C32.1284 23.7368 32.5331 23.9604 32.7077 24.3592C32.8356 24.6525 32.8207 24.9996 32.9546 25.2897C33.147 25.7117 33.5914 25.9058 34 26.0714C33.6489 26.5725 32.8951 26.4364 32.4032 26.0957C31.9112 25.7549 31.4877 25.2517 30.9154 25.1198C30.6331 25.0606 30.3404 25.0956 30.0775 25.22C29.8146 25.3445 29.5942 25.5523 29.4466 25.815C29.2898 26.1073 29.2343 26.448 29.1569 26.7729C28.9586 27.6296 28.5619 28.482 27.8676 28.9683C27.1733 29.4547 26.1388 29.4515 25.5943 28.7858C25.2769 28.3976 25.1708 27.8691 25.0766 27.3648C25.0229 27.1297 24.9973 26.8883 25.0002 26.6464C25.032 26.0408 25.4108 25.5249 25.7937 25.0755C26.245 24.548 26.725 24.0417 27.205 23.5384C27.6196 23.1038 28.0977 22.3674 28.7225 22.3157C29.4426 22.2546 29.9514 22.9371 30.5415 23.2441Z" fill="black"/>
<path d="M30.5415 23.2441C30.9115 23.4382 31.335 23.492 31.7317 23.6144C32.1284 23.7368 32.5331 23.9604 32.7077 24.3592C32.8356 24.6525 32.8207 24.9996 32.9546 25.2897C33.147 25.7117 33.5914 25.9058 34 26.0714C33.6489 26.5725 32.8951 26.4364 32.4032 26.0957C31.9112 25.7549 31.4877 25.2517 30.9154 25.1198C30.6331 25.0606 30.3404 25.0956 30.0775 25.22C29.8146 25.3445 29.5942 25.5523 29.4466 25.815C29.2898 26.1073 29.2343 26.448 29.1569 26.7729C28.9586 27.6296 28.5619 28.482 27.8676 28.9683C27.1733 29.4547 26.1388 29.4515 25.5943 28.7858C25.2769 28.3976 25.1708 27.8691 25.0766 27.3648C25.0229 27.1297 24.9973 26.8883 25.0002 26.6464C25.032 26.0408 25.4108 25.5249 25.7937 25.0755C26.245 24.548 26.725 24.0417 27.205 23.5384C27.6196 23.1038 28.0977 22.3674 28.7225 22.3157C29.4426 22.2546 29.9514 22.9371 30.5415 23.2441Z" fill="#343434"/>
<path d="M31.18 45.3119H21.82C21.3671 45.3119 21 45.7439 21 46.2767V46.3471C21 46.8799 21.3671 47.3119 21.82 47.3119H31.18C31.6329 47.3119 32 46.8799 32 46.3471V46.2767C32 45.7439 31.6329 45.3119 31.18 45.3119Z" fill="#D6D6E3"/>
<path opacity="0.1" d="M21 46.3119V46.4728C21 46.6953 21.0737 46.9087 21.2048 47.0661C21.336 47.2235 21.5139 47.3119 21.6994 47.3119H31.3006C31.4861 47.3119 31.664 47.2235 31.7952 47.0661C31.9263 46.9087 32 46.6953 32 46.4728V46.3119H21Z" fill="black"/>
<path d="M42 47.3119H40V71.3119H42V47.3119Z" fill="#D6D6E3"/>
<path opacity="0.1" d="M42 47.3119H40V48.3119H42V47.3119Z" fill="black"/>
<path d="M90 45.3119H39V48.3119H90V45.3119Z" fill="#D6D6E3"/>
<defs>
<linearGradient id="paint0_linear" x1="91.8908" y1="71.0055" x2="96.3269" y2="20.795" gradientUnits="userSpaceOnUse">
<stop stop-color="#808080" stop-opacity="0.25"/>
<stop offset="0.54" stop-color="#808080" stop-opacity="0.12"/>
<stop offset="1" stop-color="#808080" stop-opacity="0.1"/>
</linearGradient>
<linearGradient id="paint1_linear" x1="7931" y1="36146.7" x2="7931" y2="10066.3" gradientUnits="userSpaceOnUse">
<stop stop-color="#808080" stop-opacity="0.25"/>
<stop offset="0.54" stop-color="#808080" stop-opacity="0.12"/>
<stop offset="1" stop-color="#808080" stop-opacity="0.1"/>
</linearGradient>
</defs>
</svg>
