<svg width="111" height="86" viewBox="0 0 111 86" fill="none" xmlns="http://www.w3.org/2000/svg">
<path opacity="0.1" d="M6.99395 37.3162C11.0838 31.1233 10.0487 22.5154 7.98943 15.6974C7.29607 13.415 6.51256 11.0031 6.9781 8.48044C7.54765 5.39545 9.86946 3.01939 12.2497 1.68928C16.5872 -0.736634 21.6221 -0.537216 25.3574 2.20677C28.5855 4.57884 30.7795 8.62602 34.074 10.8814C39.5803 14.6424 46.933 12.6303 53.2823 9.39777C57.7743 7.11344 62.7062 4.19995 66.9635 6.02761C69.9588 7.31385 71.9003 10.7777 72.865 14.5178C73.3306 16.3235 73.6357 18.2908 74.6282 19.6837C75.2225 20.5113 76.0149 21.0796 76.8361 21.5413C84.3353 25.8028 94.2297 22.653 101.485 27.445C106.382 30.6756 109.295 37.1706 110.382 44.0655C111.47 50.9603 110.934 58.2939 110.207 65.5108C109.691 70.6388 108.951 76.1248 106.109 80.2358C103.103 84.5841 98.2265 86.4357 93.9256 85.9142C89.6248 85.3927 85.8429 82.8103 82.5514 79.6924C78.4377 75.8038 74.6896 70.8722 69.4665 69.5221C65.9095 68.5998 62.0762 69.4653 58.338 69.9209C52.0877 70.6737 45.894 70.255 39.7418 69.7574C33.8511 69.2808 27.9228 68.7214 22.3907 66.6894C18.4762 65.2516 15.4233 62.3879 11.7534 60.4835C9.36132 59.2421 6.69679 59.0248 4.45523 57.3925C1.69364 55.3834 -0.747029 51.7401 0.212787 47.2382C1.12506 42.9517 4.82371 40.6066 6.99395 37.3162Z" fill="#6B0000"/>
<g clip-path="url(#clip0)">
<path d="M67.1535 37.9343C68.9974 37.9343 70.4922 36.4419 70.4922 34.601C70.4922 32.7601 68.9974 31.2677 67.1535 31.2677C65.3095 31.2677 63.8147 32.7601 63.8147 34.601C63.8147 36.4419 65.3095 37.9343 67.1535 37.9343Z" fill="#2F2E41"/>
<path d="M68.0837 31.3594C68.6615 31.3595 69.2294 31.5093 69.7319 31.7941C70.2344 32.0789 70.6542 32.489 70.9504 32.9843C71.2466 33.4797 71.409 34.0432 71.4217 34.62C71.4343 35.1967 71.2969 35.7668 71.0228 36.2747C71.3123 35.9131 71.5231 35.4953 71.6419 35.0479C71.7607 34.6005 71.7848 34.1332 71.7127 33.676C71.6407 33.2188 71.474 32.7815 71.2233 32.3921C70.9726 32.0028 70.6434 31.6698 70.2567 31.4145C69.87 31.1591 69.4343 30.987 68.9772 30.9091C68.5202 30.8312 68.052 30.8492 67.6023 30.9619C67.1526 31.0747 66.7314 31.2797 66.3655 31.564C65.9996 31.8482 65.697 32.2054 65.4771 32.6129C65.7891 32.2217 66.1856 31.9058 66.6369 31.6888C67.0882 31.4718 67.5828 31.3592 68.0837 31.3594Z" fill="#2F2E41"/>
<path d="M60.9143 34.5939C66.3309 34.5939 70.7219 30.2101 70.7219 24.8024C70.7219 19.3947 66.3309 15.0108 60.9143 15.0108C55.4977 15.0108 51.1067 19.3947 51.1067 24.8024C51.1067 30.2101 55.4977 34.5939 60.9143 34.5939Z" fill="#2F2E41"/>
<path d="M53.2171 18.7271C54.907 16.8297 57.2692 15.662 59.8052 15.4704C62.3412 15.2789 64.8525 16.0785 66.8091 17.7005C66.7289 17.6244 66.6496 17.5476 66.5663 17.4737C64.6221 15.749 62.0715 14.8659 59.4752 15.0185C56.879 15.1711 54.4498 16.347 52.7218 18.2876C50.9939 20.2281 50.1087 22.7744 50.261 25.3664C50.4133 27.9585 51.5905 30.384 53.5339 32.1096C53.6172 32.1835 53.7028 32.2532 53.7879 32.3238C51.9453 30.5738 50.8557 28.1775 50.7492 25.6407C50.6427 23.1039 51.5276 20.6249 53.2171 18.7271Z" fill="#2F2E41"/>
<path d="M60.8314 34.5109C64.3201 34.5109 67.1482 31.6874 67.1482 28.2045C67.1482 24.7215 64.3201 21.8981 60.8314 21.8981C57.3428 21.8981 54.5146 24.7215 54.5146 28.2045C54.5146 31.6874 57.3428 34.5109 60.8314 34.5109Z" fill="#FFB8B8"/>
<path d="M56.3431 30.196C56.3431 30.196 57.1742 37.83 55.8444 38.6598C54.5145 39.4896 63.491 40.6513 63.491 40.6513C63.491 40.6513 62.1611 32.3534 65.4857 30.196H56.3431Z" fill="#FFB8B8"/>
<path d="M64.3222 37.3322C64.3222 37.3322 66.7974 36.1783 63.2326 36.5893C59.6677 37.0003 56.5921 35.4237 56.5921 35.4237C56.5921 35.4237 55.512 34.345 55.3457 35.5067C55.1795 36.6684 55.8444 38.8259 52.1873 39.1578C48.5303 39.4897 45.2057 38.4939 43.8758 40.9833C42.546 43.4727 43.2109 54.26 43.2109 54.26C43.2109 54.26 45.7044 63.2217 47.6991 64.5494C49.6939 65.8771 67.1481 64.0515 67.1481 64.0515L72.135 55.0898V44.6344C72.135 44.6344 71.4701 40.9833 66.8156 41.9791C66.8156 41.9791 63.8235 41.3152 63.9897 39.8216C64.1559 38.328 64.3222 37.3322 64.3222 37.3322Z" fill="#D0CDE1"/>
<path d="M48.3588 70.8914C48.4615 70.4444 48.5303 70.1917 48.5303 70.1917L48.4771 69.8281L47.9295 66.1152L47.6992 64.5491C49.6935 63.7194 50.1926 59.9021 50.1926 59.9021L50.2678 59.8573L50.6081 59.6539V59.653L51.83 58.9213L51.8548 58.9066L52.3483 59.2345L53.351 59.9021C56.8589 62.4775 60.4311 62.4317 62.6355 62.026C63.9831 61.7778 64.8206 61.3959 64.8206 61.3959L67.2387 60.5909L67.314 60.5661L67.3883 60.5771L68.8065 60.7914L68.8322 60.796L68.9496 60.8134L68.6212 63.0801L68.1451 66.3744C69.4028 67.0393 70.521 68.2885 71.4989 69.8281C71.7154 70.1688 71.9252 70.5232 72.1282 70.8914C72.3924 71.3676 72.6447 71.8631 72.885 72.3705C72.9144 72.4309 72.9428 72.4923 72.9712 72.5536C73.0639 72.7524 73.1556 72.953 73.2446 73.1544H47.9185C47.9515 72.952 47.9845 72.7588 48.0166 72.5729C48.0183 72.5666 48.0195 72.5601 48.0203 72.5536C48.0322 72.4914 48.0432 72.4309 48.0533 72.3705C48.1652 71.766 48.2735 71.2614 48.3588 70.8914Z" fill="#2F2E41"/>
<path d="M47.3667 38.9918C47.3667 38.9918 49.1952 42.3109 48.5303 46.4599C47.8654 50.6089 50.5251 60.8983 50.5251 60.8983L52.5199 60.4004C52.5199 60.4004 51.19 51.7706 51.5225 49.7791C51.8549 47.7876 51.8549 39.9875 50.1926 38.9918C48.5303 37.996 47.3667 38.9918 47.3667 38.9918Z" fill="#2F2E41"/>
<path d="M66.6987 42.441L67.3974 60.8153L68.7273 61.645C68.7273 61.645 70.6389 41.4811 69.6415 41.4811H67.6121C67.4881 41.4811 67.3653 41.5063 67.2513 41.5552C67.1373 41.604 67.0345 41.6755 66.949 41.7653C66.8636 41.8551 66.7973 41.9613 66.7543 42.0775C66.7113 42.1936 66.6924 42.3173 66.6987 42.441Z" fill="#2F2E41"/>
<path d="M51.4393 60.4834C51.8983 60.4834 52.2705 60.1119 52.2705 59.6536C52.2705 59.1953 51.8983 58.8238 51.4393 58.8238C50.9803 58.8238 50.6082 59.1953 50.6082 59.6536C50.6082 60.1119 50.9803 60.4834 51.4393 60.4834Z" fill="#6C63FF"/>
<path d="M68.0624 61.3132C68.5214 61.3132 68.8935 60.9417 68.8935 60.4834C68.8935 60.0251 68.5214 59.6536 68.0624 59.6536C67.6033 59.6536 67.2312 60.0251 67.2312 60.4834C67.2312 60.9417 67.6033 61.3132 68.0624 61.3132Z" fill="#6C63FF"/>
<path d="M55.4287 20.3214V26.6279H56.8916L58.7534 24.6364L58.504 26.6279H64.9703L64.5714 24.6364L65.3693 26.6279H66.3999V20.3214H55.4287Z" fill="#2F2E41"/>
<path d="M54.4313 27.7896C54.7067 27.7896 54.93 27.3809 54.93 26.8768C54.93 26.3727 54.7067 25.9641 54.4313 25.9641C54.1559 25.9641 53.9326 26.3727 53.9326 26.8768C53.9326 27.3809 54.1559 27.7896 54.4313 27.7896Z" fill="#FFB8B8"/>
<path d="M67.2311 27.7896C67.5065 27.7896 67.7298 27.3809 67.7298 26.8768C67.7298 26.3727 67.5065 25.9641 67.2311 25.9641C66.9557 25.9641 66.7324 26.3727 66.7324 26.8768C66.7324 27.3809 66.9557 27.7896 67.2311 27.7896Z" fill="#FFB8B8"/>
<path d="M70.6388 60.4004C70.6388 60.4004 63.0753 58.9898 62.5766 61.4791C62.0779 63.9685 70.9713 62.8898 70.9713 62.8898L70.6388 60.4004Z" fill="#FFB8B8"/>
<path d="M70.4727 43.3066C70.4727 43.3066 88.5918 57.745 85.2672 61.2301C81.9426 64.7153 69.3091 63.7195 69.3091 63.7195L70.1402 59.5706L77.4544 58.7408L73.7973 55.0897L70.4727 55.4216V43.3066Z" fill="#D0CDE1"/>
<path d="M43.7095 67.3706L46.0367 69.1962C46.0367 69.1962 47.699 74.3409 50.1925 72.8472C52.6859 71.3536 47.8652 66.043 47.8652 66.043L45.0393 65.0472L43.7095 67.3706Z" fill="#FFB8B8"/>
<path d="M46.0367 40.6514L43.7157 41.3487C43.7157 41.3487 27.5851 53.2642 26.9202 56.5834C26.2553 59.9025 30.0786 61.7281 30.0786 61.7281L44.5406 68.5323L46.0367 64.5494L39.2212 61.0642C39.2212 61.0642 39.7199 60.0685 37.7252 59.9025C35.7304 59.7366 35.3979 57.5791 35.3979 57.5791C35.3979 57.5791 39.3875 51.4387 41.5485 52.7663C43.7095 54.094 44.3744 55.0897 44.3744 55.0897L46.0367 40.6514Z" fill="#D0CDE1"/>
<path d="M79.1403 71.4602V72.0161C79.1406 72.1687 79.1123 72.3199 79.0569 72.4621C79.0322 72.5255 79.0025 72.5867 78.9679 72.6453C78.8585 72.8285 78.7034 72.9802 78.5177 73.0855C78.3319 73.1908 78.1219 73.2462 77.9083 73.2461H36.9442C36.7305 73.2462 36.5206 73.1908 36.3348 73.0855C36.1491 72.9802 35.994 72.8285 35.8846 72.6453C35.85 72.5867 35.8203 72.5255 35.7956 72.4621C35.7402 72.3199 35.7119 72.1687 35.7122 72.0161V71.4602C35.7121 71.2986 35.744 71.1387 35.8059 70.9894C35.8678 70.8402 35.9585 70.7046 36.0729 70.5903C36.1873 70.4761 36.3232 70.3855 36.4726 70.3237C36.6221 70.2619 36.7824 70.2301 36.9442 70.2302H39.3054V69.971C39.3054 69.9643 39.3067 69.9576 39.3093 69.9514C39.3119 69.9451 39.3157 69.9395 39.3204 69.9347C39.3252 69.9299 39.3309 69.9262 39.3371 69.9236C39.3434 69.921 39.35 69.9197 39.3568 69.9197H40.5888C40.5955 69.9197 40.6022 69.921 40.6085 69.9236C40.6147 69.9262 40.6204 69.9299 40.6251 69.9347C40.6299 69.9395 40.6337 69.9451 40.6363 69.9514C40.6388 69.9576 40.6402 69.9643 40.6402 69.971V70.2302H41.4098V69.971C41.4098 69.9643 41.4111 69.9576 41.4137 69.9514C41.4163 69.9451 41.4201 69.9395 41.4248 69.9347C41.4296 69.9299 41.4353 69.9262 41.4415 69.9236C41.4477 69.921 41.4544 69.9197 41.4612 69.9197H42.6932C42.6999 69.9197 42.7066 69.921 42.7129 69.9236C42.7191 69.9262 42.7248 69.9299 42.7295 69.9347C42.7343 69.9395 42.7381 69.9451 42.7407 69.9514C42.7432 69.9576 42.7446 69.9643 42.7446 69.971V70.2302H43.5151V69.971C43.5151 69.9643 43.5164 69.9576 43.519 69.9514C43.5216 69.9451 43.5254 69.9395 43.5301 69.9347C43.5349 69.9299 43.5406 69.9262 43.5468 69.9236C43.5531 69.921 43.5597 69.9197 43.5665 69.9197H44.7985C44.8052 69.9197 44.8119 69.921 44.8182 69.9236C44.8244 69.9262 44.8301 69.9299 44.8348 69.9347C44.8396 69.9395 44.8434 69.9451 44.846 69.9514C44.8486 69.9576 44.8499 69.9643 44.8499 69.971V70.2302H45.6195V69.971C45.6195 69.9643 45.6208 69.9576 45.6234 69.9514C45.626 69.9451 45.6298 69.9395 45.6345 69.9347C45.6393 69.9299 45.645 69.9262 45.6512 69.9236C45.6575 69.921 45.6641 69.9197 45.6709 69.9197H46.9029C46.9096 69.9197 46.9163 69.921 46.9226 69.9236C46.9288 69.9262 46.9345 69.9299 46.9392 69.9347C46.944 69.9395 46.9478 69.9451 46.9504 69.9514C46.953 69.9576 46.9543 69.9643 46.9543 69.971V70.2302H47.7239V69.971C47.7239 69.9643 47.7252 69.9576 47.7278 69.9514C47.7304 69.9451 47.7342 69.9395 47.7389 69.9347C47.7437 69.9299 47.7494 69.9262 47.7556 69.9236C47.7619 69.921 47.7685 69.9197 47.7753 69.9197H49.0073C49.014 69.9197 49.0207 69.921 49.027 69.9236C49.0332 69.9262 49.0389 69.9299 49.0436 69.9347C49.0484 69.9395 49.0522 69.9451 49.0548 69.9514C49.0573 69.9576 49.0587 69.9643 49.0587 69.971V70.2302H49.8292V69.971C49.8292 69.9643 49.8305 69.9576 49.8331 69.9514C49.8357 69.9451 49.8395 69.9395 49.8442 69.9347C49.849 69.9299 49.8547 69.9262 49.8609 69.9236C49.8672 69.921 49.8739 69.9197 49.8806 69.9197H51.1126C51.1193 69.9197 51.126 69.921 51.1323 69.9236C51.1385 69.9262 51.1442 69.9299 51.1489 69.9347C51.1537 69.9395 51.1575 69.9451 51.1601 69.9514C51.1627 69.9576 51.164 69.9643 51.164 69.971V70.2302H51.9336V69.971C51.9336 69.9643 51.9349 69.9576 51.9375 69.9514C51.9401 69.9451 51.9439 69.9395 51.9486 69.9347C51.9534 69.9299 51.9591 69.9262 51.9653 69.9236C51.9716 69.921 51.9782 69.9197 51.985 69.9197H61.6355C61.6422 69.9197 61.6489 69.921 61.6552 69.9236C61.6614 69.9262 61.6671 69.9299 61.6718 69.9347C61.6766 69.9395 61.6804 69.9451 61.683 69.9514C61.6856 69.9576 61.6869 69.9643 61.6869 69.971V70.2302H62.4574V69.971C62.4574 69.9643 62.4588 69.9576 62.4613 69.9514C62.4639 69.9451 62.4677 69.9395 62.4725 69.9347C62.4772 69.9299 62.4829 69.9262 62.4891 69.9236C62.4954 69.921 62.5021 69.9197 62.5088 69.9197H63.7408C63.7544 69.9198 63.7674 69.9253 63.777 69.9349C63.7866 69.9445 63.792 69.9574 63.7922 69.971V70.2302H64.5618V69.971C64.5618 69.9643 64.5631 69.9576 64.5657 69.9514C64.5683 69.9451 64.5721 69.9395 64.5769 69.9347C64.5816 69.9299 64.5873 69.9262 64.5935 69.9236C64.5998 69.921 64.6065 69.9197 64.6132 69.9197H65.8452C65.852 69.9197 65.8586 69.921 65.8649 69.9236C65.8711 69.9262 65.8768 69.9299 65.8816 69.9347C65.8863 69.9395 65.8901 69.9451 65.8927 69.9514C65.8953 69.9576 65.8966 69.9643 65.8966 69.971V70.2302H66.6662V69.971C66.6662 69.9643 66.6675 69.9576 66.6701 69.9514C66.6727 69.9451 66.6765 69.9395 66.6813 69.9347C66.686 69.9299 66.6917 69.9262 66.6979 69.9236C66.7042 69.921 66.7109 69.9197 66.7176 69.9197H67.9496C67.9563 69.9197 67.963 69.921 67.9693 69.9236C67.9755 69.9262 67.9812 69.9299 67.9859 69.9347C67.9907 69.9395 67.9945 69.9451 67.9971 69.9514C67.9997 69.9576 68.001 69.9643 68.001 69.971V70.2302H68.7715V69.971C68.7715 69.9643 68.7729 69.9576 68.7754 69.9514C68.778 69.9451 68.7818 69.9395 68.7866 69.9347C68.7913 69.9299 68.797 69.9262 68.8032 69.9236C68.8095 69.921 68.8162 69.9197 68.8229 69.9197H70.0549C70.0684 69.9199 70.0813 69.9254 70.0907 69.935C70.1002 69.9446 70.1054 69.9575 70.1054 69.971V70.2302H70.8759V69.971C70.8759 69.9643 70.8773 69.9576 70.8798 69.9514C70.8824 69.9451 70.8862 69.9395 70.891 69.9347C70.8957 69.9299 70.9014 69.9262 70.9076 69.9236C70.9139 69.921 70.9206 69.9197 70.9273 69.9197H72.1593C72.1661 69.9197 72.1727 69.921 72.179 69.9236C72.1852 69.9262 72.1909 69.9299 72.1957 69.9347C72.2004 69.9395 72.2042 69.9451 72.2068 69.9514C72.2094 69.9576 72.2107 69.9643 72.2107 69.971V70.2302H72.9803V69.971C72.9803 69.9643 72.9816 69.9576 72.9842 69.9514C72.9868 69.9451 72.9906 69.9395 72.9954 69.9347C73.0001 69.9299 73.0058 69.9262 73.012 69.9236C73.0183 69.921 73.025 69.9197 73.0317 69.9197H74.2637C74.2705 69.9197 74.2771 69.921 74.2834 69.9236C74.2896 69.9262 74.2953 69.9299 74.3001 69.9347C74.3048 69.9395 74.3086 69.9451 74.3112 69.9514C74.3138 69.9576 74.3151 69.9643 74.3151 69.971V70.2302H77.9083C78.0701 70.2301 78.2304 70.2619 78.3798 70.3237C78.5293 70.3855 78.6652 70.4761 78.7796 70.5903C78.894 70.7046 78.9847 70.8402 79.0466 70.9894C79.1085 71.1387 79.1404 71.2986 79.1403 71.4602Z" fill="#3F3D56"/>
<path d="M91.0519 72.4617H23.8103V72.6448H91.0519V72.4617Z" fill="#3F3D56"/>
<path d="M75.8417 48.048H60.5731V47.7338H53.6498V48.048H38.3182C38.0443 48.048 37.7816 48.1566 37.5879 48.35C37.3942 48.5434 37.2854 48.8056 37.2854 49.0791V69.9523C37.2854 70.2257 37.3942 70.488 37.5879 70.6814C37.7816 70.8747 38.0443 70.9834 38.3182 70.9834H75.8417C76.1157 70.9834 76.3784 70.8747 76.572 70.6814C76.7657 70.488 76.8745 70.2257 76.8745 69.9523V49.0791C76.8745 48.9437 76.8478 48.8096 76.7959 48.6845C76.744 48.5594 76.6679 48.4457 76.572 48.35C76.4761 48.2542 76.3623 48.1783 76.237 48.1265C76.1117 48.0746 75.9774 48.048 75.8417 48.048Z" fill="#3F3D56"/>
<path d="M57.1103 57.6249C58.3769 57.6249 59.4036 56.5998 59.4036 55.3353C59.4036 54.0708 58.3769 53.0457 57.1103 53.0457C55.8437 53.0457 54.8169 54.0708 54.8169 55.3353C54.8169 56.5998 55.8437 57.6249 57.1103 57.6249Z" stroke="#D0CDE1" stroke-width="2" stroke-miterlimit="10"/>
<path d="M56.3761 58.4492C57.6427 58.4492 58.6695 57.4241 58.6695 56.1595C58.6695 54.895 57.6427 53.8699 56.3761 53.8699C55.1095 53.8699 54.0828 54.895 54.0828 56.1595C54.0828 57.4241 55.1095 58.4492 56.3761 58.4492Z" fill="#D0CDE1"/>
<path d="M28.7248 75.771H11.387V75.9781H28.7248V75.771Z" fill="#3F3D56"/>
<path d="M104.406 75.771H87.0681V75.9781H104.406V75.771Z" fill="#3F3D56"/>
<path d="M21.4888 69.1006C19.6623 72.0777 20.2907 75.7809 20.2907 75.7809C20.2907 75.7809 23.8805 74.6572 25.707 71.6801C27.5336 68.7031 26.9052 64.9999 26.9052 64.9999C26.9052 64.9999 23.3153 66.1235 21.4888 69.1006Z" fill="#3F3D56"/>
<path d="M20.2161 75.8054L20.1122 75.789C20.0747 75.783 16.3366 75.1647 14.0979 72.4906C11.8592 69.8164 11.9131 66.0339 11.9138 65.996L11.916 65.8911L12.0199 65.9075C12.0574 65.9134 15.7955 66.5318 18.0342 69.206C20.2729 71.8801 20.219 75.6626 20.2183 75.7005L20.2161 75.8054Z" fill="#6C63FF"/>
<path d="M20.3636 75.8996L20.2632 75.8682C20.227 75.8568 16.6195 74.6999 14.7961 71.728C12.9727 68.756 13.5794 65.0219 13.5857 64.9846L13.6032 64.8811L13.7036 64.9125C13.7399 64.9238 17.3474 66.0807 19.1708 69.0527C20.9942 72.0247 20.3874 75.7587 20.3811 75.7961L20.3636 75.8996ZM13.7512 65.1221C13.6682 65.7488 13.3372 68.9994 14.9525 71.6323C16.5679 74.2651 19.6188 75.4476 20.2156 75.6585C20.2986 75.0318 20.6296 71.7812 19.0143 69.1484C17.399 66.5156 14.3481 65.3331 13.7512 65.1221H13.7512Z" fill="#3F3D56"/>
<path d="M20.4046 66.1342C21.5192 66.1342 22.4228 65.2321 22.4228 64.1194C22.4228 63.0066 21.5192 62.1045 20.4046 62.1045C19.29 62.1045 18.3865 63.0066 18.3865 64.1194C18.3865 65.2321 19.29 66.1342 20.4046 66.1342Z" fill="#3F3D56"/>
<path d="M45.6747 38.6521L34.0971 27.0022H28.6313V26.8191H34.1737L34.2007 26.8463L45.8051 38.5233L45.6747 38.6521Z" fill="#3F3D56"/>
<path d="M72.8668 38.2858L84.4442 26.6359H89.9101V26.4528H84.3676L84.3408 26.48L72.7363 38.157L72.8668 38.2858Z" fill="#3F3D56"/>
<path d="M22.3933 21.2589H9V23.9036H22.3933V21.2589Z" fill="#D0CDE1"/>
<path d="M22.3933 25.3171H9V27.9618H22.3933V25.3171Z" fill="#D0CDE1"/>
<path d="M22.3933 29.3754H9V32.0201H22.3933V29.3754Z" fill="#D0CDE1"/>
<path opacity="0.15" d="M14.5407 21.2589H9V23.9036H14.5407V21.2589Z" fill="black"/>
<path opacity="0.15" d="M10.7937 25.3171H9V27.9618H10.7937V25.3171Z" fill="black"/>
<path opacity="0.15" d="M17.9288 29.3754H9V32.0201H17.9288V29.3754Z" fill="black"/>
<path d="M110 21.853H96.5862V23.0464H110V21.853Z" fill="#D0CDE1"/>
<path d="M94.2175 21.6985H91.5613V24.3504H94.2175V21.6985Z" fill="#6C63FF"/>
<path d="M94.2175 25.6763H91.5613V28.3282H94.2175V25.6763Z" fill="#6C63FF"/>
<path d="M94.2175 29.6541H91.5613V32.3059H94.2175V29.6541Z" fill="#6C63FF"/>
<path d="M94.9515 23.8009H92.1118V20.9659H94.9515V23.8009ZM92.2953 23.6178H94.768V21.1491H92.2953V23.6178Z" fill="#3F3D56"/>
<path d="M110 25.8308H96.5862V27.0241H110V25.8308Z" fill="#D0CDE1"/>
<path d="M94.9515 27.7787H92.1118V24.9437H94.9515V27.7787ZM92.2953 27.5955H94.768V25.1269H92.2953V27.5955Z" fill="#3F3D56"/>
<path d="M110 29.8086H96.5862V31.0019H110V29.8086Z" fill="#D0CDE1"/>
<path d="M94.9515 31.7565H92.1118V28.9214H94.9515V31.7565ZM92.2953 31.5733H94.768V29.1046H92.2953V31.5733Z" fill="#3F3D56"/>
<path d="M26.3379 24.0716C27.1485 24.0716 27.8056 23.4155 27.8056 22.6062C27.8056 21.7969 27.1485 21.1409 26.3379 21.1409C25.5273 21.1409 24.8701 21.7969 24.8701 22.6062C24.8701 23.4155 25.5273 24.0716 26.3379 24.0716Z" fill="#6C63FF"/>
<path d="M26.3379 28.4676C27.1485 28.4676 27.8056 27.8116 27.8056 27.0023C27.8056 26.193 27.1485 25.5369 26.3379 25.5369C25.5273 25.5369 24.8701 26.193 24.8701 27.0023C24.8701 27.8116 25.5273 28.4676 26.3379 28.4676Z" fill="#6C63FF"/>
<path d="M26.3379 32.4058C27.1485 32.4058 27.8056 31.7497 27.8056 30.9404C27.8056 30.1311 27.1485 29.4751 26.3379 29.4751C25.5273 29.4751 24.8701 30.1311 24.8701 30.9404C24.8701 31.7497 25.5273 32.4058 26.3379 32.4058Z" fill="#6C63FF"/>
<path d="M25.6039 23.7968C25.2955 23.7968 24.994 23.7055 24.7375 23.5344C24.4811 23.3634 24.2812 23.1202 24.1631 22.8357C24.0451 22.5512 24.0142 22.2382 24.0744 21.9361C24.1346 21.6341 24.2831 21.3567 24.5012 21.139C24.7193 20.9212 24.9972 20.7729 25.2997 20.7129C25.6022 20.6528 25.9158 20.6836 26.2007 20.8015C26.4857 20.9193 26.7292 21.1189 26.9006 21.3749C27.072 21.6309 27.1634 21.932 27.1634 22.2399C27.163 22.6527 26.9985 23.0484 26.7061 23.3403C26.4138 23.6322 26.0174 23.7964 25.6039 23.7968ZM25.6039 20.8661C25.3318 20.8661 25.0657 20.9467 24.8394 21.0976C24.6132 21.2486 24.4368 21.4632 24.3326 21.7142C24.2285 21.9652 24.2013 22.2414 24.2543 22.5079C24.3074 22.7744 24.4385 23.0192 24.6309 23.2113C24.8234 23.4034 25.0686 23.5343 25.3355 23.5873C25.6024 23.6403 25.8791 23.6131 26.1305 23.5091C26.3819 23.4051 26.5968 23.229 26.748 23.0031C26.8992 22.7772 26.9799 22.5116 26.9799 22.2399C26.9795 21.8757 26.8344 21.5265 26.5765 21.2689C26.3185 21.0114 25.9687 20.8665 25.6039 20.8661Z" fill="#3F3D56"/>
<path d="M25.6039 28.1929C25.2955 28.1929 24.994 28.1015 24.7375 27.9305C24.4811 27.7594 24.2812 27.5162 24.1631 27.2317C24.0451 26.9472 24.0142 26.6342 24.0744 26.3322C24.1346 26.0302 24.2831 25.7527 24.5012 25.535C24.7193 25.3173 24.9972 25.169 25.2997 25.1089C25.6022 25.0488 25.9158 25.0797 26.2007 25.1975C26.4857 25.3153 26.7292 25.5149 26.9006 25.7709C27.072 26.027 27.1634 26.328 27.1634 26.6359C27.163 27.0487 26.9985 27.4445 26.7061 27.7363C26.4138 28.0282 26.0174 28.1924 25.6039 28.1929ZM25.6039 25.2621C25.3318 25.2621 25.0657 25.3427 24.8394 25.4937C24.6132 25.6446 24.4368 25.8592 24.3326 26.1102C24.2285 26.3612 24.2013 26.6374 24.2543 26.9039C24.3074 27.1704 24.4385 27.4152 24.6309 27.6073C24.8234 27.7994 25.0686 27.9303 25.3355 27.9833C25.6024 28.0363 25.8791 28.0091 26.1305 27.9051C26.3819 27.8011 26.5968 27.6251 26.748 27.3991C26.8992 27.1732 26.9799 26.9076 26.9799 26.6359C26.9795 26.2717 26.8344 25.9225 26.5765 25.665C26.3185 25.4074 25.9687 25.2626 25.6039 25.2621Z" fill="#3F3D56"/>
<path d="M25.6039 32.131C25.2955 32.131 24.994 32.0397 24.7375 31.8686C24.4811 31.6975 24.2812 31.4544 24.1631 31.1699C24.0451 30.8854 24.0142 30.5723 24.0744 30.2703C24.1346 29.9683 24.2831 29.6909 24.5012 29.4731C24.7193 29.2554 24.9972 29.1071 25.2997 29.047C25.6022 28.987 25.9158 29.0178 26.2007 29.1356C26.4857 29.2535 26.7292 29.453 26.9006 29.7091C27.072 29.9651 27.1634 30.2661 27.1634 30.5741C27.163 30.9868 26.9985 31.3826 26.7061 31.6745C26.4138 31.9664 26.0174 32.1305 25.6039 32.131ZM25.6039 29.2003C25.3318 29.2003 25.0657 29.2809 24.8394 29.4318C24.6132 29.5828 24.4368 29.7973 24.3326 30.0483C24.2285 30.2994 24.2013 30.5756 24.2543 30.8421C24.3074 31.1086 24.4385 31.3533 24.6309 31.5455C24.8234 31.7376 25.0686 31.8684 25.3355 31.9214C25.6024 31.9744 25.8791 31.9472 26.1305 31.8433C26.3819 31.7393 26.5968 31.5632 26.748 31.3373C26.8992 31.1114 26.9799 30.8458 26.9799 30.5741C26.9795 30.2098 26.8344 29.8607 26.5765 29.6031C26.3185 29.3456 25.9687 29.2007 25.6039 29.2003Z" fill="#3F3D56"/>
<path d="M99.7257 69.5891H99.5422V68.2153C99.5423 68.1425 99.5713 68.0727 99.6229 68.0212C99.6745 67.9696 99.7445 67.9407 99.8174 67.9406H100.276C100.3 67.9406 100.324 67.9309 100.341 67.9137C100.358 67.8966 100.368 67.8733 100.368 67.849V66.9332C100.368 66.9089 100.358 66.8856 100.341 66.8684C100.324 66.8512 100.3 66.8416 100.276 66.8416H99.8174C99.7445 66.8415 99.6745 66.8125 99.6229 66.761C99.5713 66.7095 99.5423 66.6397 99.5422 66.5668V66.1089C99.5422 66.0846 99.5325 66.0613 99.5153 66.0442C99.4981 66.027 99.4748 66.0173 99.4505 66.0173H98.6249C98.5519 66.0172 98.4819 65.9883 98.4304 65.9368C98.3788 65.8852 98.3497 65.8154 98.3497 65.7426V65.651C98.3496 65.6267 98.34 65.6034 98.3228 65.5862C98.3056 65.5691 98.2822 65.5594 98.2579 65.5594H94.9555C94.9312 65.5594 94.9078 65.5691 94.8906 65.5862C94.8734 65.6034 94.8638 65.6267 94.8637 65.651V65.7426C94.8637 65.8154 94.8346 65.8852 94.783 65.9368C94.7315 65.9883 94.6615 66.0172 94.5885 66.0173H93.7629C93.7386 66.0173 93.7153 66.027 93.6981 66.0442C93.6809 66.0613 93.6712 66.0846 93.6712 66.1089V66.5668C93.6711 66.6397 93.6421 66.7095 93.5905 66.761C93.5389 66.8125 93.469 66.8415 93.396 66.8416H92.9373C92.913 66.8416 92.8897 66.8512 92.8725 66.8684C92.8553 66.8856 92.8456 66.9089 92.8456 66.9332V67.849C92.8456 67.8733 92.8553 67.8966 92.8725 67.9137C92.8897 67.9309 92.913 67.9406 92.9373 67.9406H93.4877C93.5607 67.9407 93.6306 67.9696 93.6822 68.0212C93.7338 68.0727 93.7628 68.1425 93.7629 68.2153V69.5891H93.5795V68.2153C93.5794 68.1911 93.5698 68.1678 93.5526 68.1506C93.5354 68.1334 93.512 68.1238 93.4877 68.1238H92.9373C92.8643 68.1237 92.7944 68.0947 92.7428 68.0432C92.6912 67.9917 92.6622 67.9218 92.6621 67.849V66.9332C92.6622 66.8603 92.6912 66.7905 92.7428 66.739C92.7944 66.6875 92.8643 66.6585 92.9373 66.6584H93.396C93.4203 66.6584 93.4436 66.6487 93.4608 66.6316C93.478 66.6144 93.4877 66.5911 93.4877 66.5668V66.1089C93.4878 66.0361 93.5168 65.9662 93.5684 65.9147C93.62 65.8632 93.69 65.8342 93.7629 65.8341H94.5885C94.6129 65.8341 94.6362 65.8245 94.6534 65.8073C94.6706 65.7901 94.6803 65.7668 94.6803 65.7426V65.651C94.6804 65.5781 94.7094 65.5083 94.761 65.4568C94.8126 65.4053 94.8825 65.3763 94.9555 65.3762H98.2579C98.3309 65.3763 98.4008 65.4053 98.4524 65.4568C98.504 65.5083 98.533 65.5781 98.5331 65.651V65.7426C98.5331 65.7668 98.5428 65.7901 98.56 65.8073C98.5772 65.8245 98.6005 65.8341 98.6249 65.8341H99.4505C99.5234 65.8342 99.5934 65.8632 99.645 65.9147C99.6966 65.9662 99.7256 66.0361 99.7257 66.1089V66.5668C99.7257 66.5911 99.7354 66.6144 99.7526 66.6316C99.7698 66.6487 99.7931 66.6584 99.8174 66.6584H100.276C100.349 66.6585 100.419 66.6875 100.471 66.739C100.522 66.7905 100.551 66.8603 100.551 66.9332V67.849C100.551 67.9218 100.522 67.9917 100.471 68.0432C100.419 68.0947 100.349 68.1237 100.276 68.1238H99.8174C99.7931 68.1238 99.7698 68.1334 99.7526 68.1506C99.7354 68.1678 99.7257 68.1911 99.7257 68.2153V69.5891Z" fill="#3F3D56"/>
<path d="M99.4506 76.0001H93.8548C93.7818 76 93.7119 75.971 93.6603 75.9195C93.6087 75.868 93.5797 75.7981 93.5796 75.7253V71.7872H93.7631V75.7253C93.7631 75.7496 93.7727 75.7729 93.7899 75.79C93.8071 75.8072 93.8305 75.8169 93.8548 75.8169H99.4506C99.4749 75.8169 99.4983 75.8072 99.5155 75.79C99.5327 75.7729 99.5423 75.7496 99.5424 75.7253V71.7872H99.7258V75.7253C99.7257 75.7981 99.6967 75.868 99.6451 75.9195C99.5935 75.971 99.5236 76 99.4506 76.0001Z" fill="#3F3D56"/>
<path d="M100.643 70.2302H93.7631C93.6617 70.2302 93.5796 70.3122 93.5796 70.4134V72.2451C93.5796 72.3462 93.6617 72.4282 93.7631 72.4282H100.643C100.744 72.4282 100.827 72.3462 100.827 72.2451V70.4134C100.827 70.3122 100.744 70.2302 100.643 70.2302Z" fill="#6C63FF"/>
<path d="M100.047 71.8787H93.1666C93.0936 71.8787 93.0236 71.8497 92.9721 71.7982C92.9205 71.7467 92.8914 71.6768 92.8914 71.604V69.7723C92.8914 69.6994 92.9205 69.6296 92.9721 69.5781C93.0236 69.5266 93.0936 69.4976 93.1666 69.4975H100.047C100.12 69.4976 100.19 69.5266 100.241 69.5781C100.293 69.6296 100.322 69.6994 100.322 69.7723V71.604C100.322 71.6768 100.293 71.7467 100.241 71.7982C100.19 71.8497 100.12 71.8787 100.047 71.8787ZM93.1666 69.6807C93.1422 69.6807 93.1189 69.6904 93.1017 69.7075C93.0845 69.7247 93.0748 69.748 93.0748 69.7723V71.604C93.0748 71.6283 93.0845 71.6516 93.1017 71.6687C93.1189 71.6859 93.1422 71.6955 93.1666 71.6956H100.047C100.071 71.6955 100.094 71.6859 100.112 71.6687C100.129 71.6516 100.138 71.6283 100.138 71.604V69.7723C100.138 69.748 100.129 69.7247 100.112 69.7075C100.094 69.6904 100.071 69.6807 100.047 69.6807H93.1666Z" fill="#3F3D56"/>
<path d="M96.4232 64.7351C96.1794 63.0951 96.115 61.4334 96.2311 59.7794L96.4232 57.042C95.3645 59.1453 95.6038 61.9136 96.4232 64.7351V64.7351Z" fill="#D0CDE1"/>
<path d="M97.2489 65.1931C97.1315 64.2144 97.1006 63.2273 97.1565 62.2432L97.2489 60.6138C96.7395 61.8658 96.8547 63.5136 97.2489 65.1931Z" fill="#D0CDE1"/>
</g>
<defs>
<clipPath id="clip0">
<rect width="101" height="61" fill="white" transform="translate(9 15)"/>
</clipPath>
</defs>
</svg>
